<svg width="201" height="47" viewBox="0 0 201 47" fill="none" xmlns="http://www.w3.org/2000/svg">
<path d="M9.68501 37.247C9.33179 37.247 8.99305 37.1057 8.74334 36.8541L0.389727 28.437C0.140182 28.1856 0 27.8447 0 27.4892V1.7861C0 1.04557 0.596084 0.445251 1.33139 0.445251H7.80195C8.53726 0.445251 9.13334 1.04557 9.13334 1.7861V26.7035C9.13334 27.444 9.72942 28.0444 10.4647 28.0444H16.9397C17.675 28.0444 18.2711 28.6447 18.2711 29.3852V35.9062C18.2711 36.6467 17.675 37.247 16.9397 37.247H9.68501Z" fill="#201600"/>
<path d="M24.1736 37.247C23.4383 37.247 22.8422 36.6467 22.8422 35.9062V19.4015C22.8422 19.0459 22.9825 18.7049 23.2322 18.4534L31.59 10.0362C31.8397 9.78473 32.1784 9.64347 32.5315 9.64347H48.9197C49.655 9.64347 50.2511 10.2438 50.2511 10.9843V18.2906C50.2511 18.6463 50.1108 18.9874 49.8609 19.2389L41.1133 28.0444H48.9197C49.655 28.0444 50.2511 28.6447 50.2511 29.3852V35.9062C50.2511 36.6467 49.655 37.247 48.9197 37.247H24.1736ZM41.1133 28.0444V20.187C41.1133 19.4465 40.5173 18.8461 39.7819 18.8461H33.3114C32.5761 18.8461 31.98 19.4465 31.98 20.187V26.7035C31.98 27.444 32.5761 28.0444 33.3114 28.0444H41.1133Z" fill="#201600"/>
<path d="M56.1536 37.247C55.4183 37.247 54.8222 36.6467 54.8222 35.9062V10.9843C54.8222 10.2438 55.4183 9.64347 56.1536 9.64347H90.8133C91.1662 9.64347 91.5047 9.78455 91.7543 10.0357L100.121 18.4533C100.371 18.7048 100.511 19.0461 100.511 19.4019V35.9062C100.511 36.6467 99.915 37.247 99.1797 37.247H92.6958C91.9605 37.247 91.3644 36.6467 91.3644 35.9062V20.187C91.3644 19.4465 90.7684 18.8461 90.0331 18.8461H83.5625C82.8272 18.8461 82.2311 19.4465 82.2311 20.187V35.9062C82.2311 36.6467 81.635 37.247 80.8997 37.247H74.4247C73.6894 37.247 73.0933 36.6467 73.0933 35.9062V20.187C73.0933 19.4465 72.4972 18.8461 71.7619 18.8461H65.2914C64.5561 18.8461 63.96 19.4465 63.96 20.187V35.9062C63.96 36.6467 63.3639 37.247 62.6286 37.247H56.1536Z" fill="#201600"/>
<path d="M106.405 37.247C105.669 37.247 105.073 36.6467 105.073 35.9062V10.9843C105.073 10.2438 105.669 9.64347 106.405 9.64347H122.793C123.146 9.64347 123.485 9.78482 123.734 10.0364L132.088 18.4535C132.338 18.7049 132.478 19.0459 132.478 19.4014V35.9062C132.478 36.6467 131.882 37.247 131.146 37.247H124.676C123.941 37.247 123.344 36.6467 123.344 35.9062V20.187C123.344 19.4465 122.748 18.8461 122.013 18.8461H115.542C114.807 18.8461 114.211 19.4465 114.211 20.187V35.9062C114.211 36.6467 113.615 37.247 112.88 37.247H106.405Z" fill="#201600"/>
<path d="M138.385 18.8461C137.649 18.8461 137.053 18.2458 137.053 17.5053V10.9843C137.053 10.2438 137.649 9.64347 138.385 9.64347H144.855C145.591 9.64347 146.187 10.2438 146.187 10.9843V17.5053C146.187 18.2458 145.591 18.8461 144.855 18.8461H138.385ZM138.385 37.247C137.649 37.247 137.053 36.6467 137.053 35.9062V24.7906C137.053 24.05 137.649 23.4497 138.385 23.4497H144.855C145.591 23.4497 146.187 24.05 146.187 24.7906V35.9062C146.187 36.6467 145.591 37.247 144.855 37.247H138.385Z" fill="#201600"/>
<path d="M160.438 37.247C160.085 37.247 159.746 37.1058 159.497 36.8543L151.139 28.4371C150.889 28.1856 150.749 27.8446 150.749 27.489V1.7861C150.749 1.04557 151.345 0.445251 152.08 0.445251H158.555C159.291 0.445251 159.887 1.04557 159.887 1.7861V8.30262C159.887 9.04315 160.483 9.64346 161.218 9.64346H167.689C168.424 9.64346 169.02 10.2438 169.02 10.9843V17.5053C169.02 18.2458 168.424 18.8461 167.689 18.8461H161.218C160.483 18.8461 159.887 19.4465 159.887 20.187V26.7035C159.887 27.444 160.483 28.0444 161.218 28.0444H167.689C168.424 28.0444 169.02 28.6447 169.02 29.3852V35.9062C169.02 36.6467 168.424 37.247 167.689 37.247H160.438Z" fill="#201600"/>
<path d="M193.198 46.4453C192.463 46.4453 191.867 45.8449 191.867 45.1044V38.5879C191.867 37.8474 191.271 37.247 190.535 37.247H183.281C182.927 37.247 182.589 37.1057 182.339 36.8541L173.985 28.437C173.736 28.1856 173.596 27.8447 173.596 27.4892V10.9843C173.596 10.2438 174.192 9.64347 174.927 9.64347H181.397C182.133 9.64347 182.729 10.2438 182.729 10.9843V26.7035C182.729 27.444 183.325 28.0444 184.06 28.0444H190.535C191.271 28.0444 191.867 27.444 191.867 26.7035V10.9843C191.867 10.2438 192.463 9.64347 193.198 9.64347H199.669C200.404 9.64347 201 10.2438 201 10.9843V45.1044C201 45.8449 200.404 46.4453 199.669 46.4453H193.198Z" fill="#201600"/>
</svg>
