<svg width="168" height="38" viewBox="0 0 168 38" fill="none" xmlns="http://www.w3.org/2000/svg">
<path d="M0 22.3408V1.10562C0 0.812388 0.116508 0.53117 0.323895 0.323827C0.531281 0.116484 0.812557 0 1.10585 0H6.52817C6.82146 0 7.10274 0.116484 7.31012 0.323827C7.51751 0.53117 7.63402 0.812388 7.63402 1.10562V21.6922C7.63402 21.9854 7.75053 22.2666 7.95791 22.474C8.1653 22.6813 8.44658 22.7978 8.73986 22.7978H14.1696C14.4629 22.7978 14.7441 22.9143 14.9515 23.1216C15.1589 23.329 15.2754 23.6102 15.2754 23.9034V29.2951C15.2754 29.5883 15.1589 29.8696 14.9515 30.0769C14.7441 30.2843 14.4629 30.4007 14.1696 30.4007H3.00053C2.20601 30.4007 1.44393 30.0857 0.881436 29.5247C0.31894 28.9637 0.00195212 28.2026 0 27.4082" fill="black"/>
<path d="M75.9347 7.59926C78.0772 7.59923 80.1327 8.44686 81.6521 9.95703C83.1716 11.4672 84.0316 13.5172 84.0442 15.6592V29.2951C84.0442 29.5883 83.9277 29.8696 83.7203 30.0769C83.513 30.2843 83.2317 30.4007 82.9384 30.4007H77.5013C77.208 30.4007 76.9268 30.2843 76.7194 30.0769C76.512 29.8696 76.3955 29.5883 76.3955 29.2951V16.3078C76.3955 16.0146 76.279 15.7334 76.0716 15.526C75.8642 15.3187 75.5829 15.2022 75.2896 15.2022H69.8673C69.574 15.2022 69.2927 15.3187 69.0854 15.526C68.878 15.7334 68.7615 16.0146 68.7615 16.3078V29.2951C68.7615 29.5883 68.6449 29.8696 68.4376 30.0769C68.2302 30.2843 67.9489 30.4007 67.6556 30.4007H62.2259C61.9326 30.4007 61.6513 30.2843 61.444 30.0769C61.2366 29.8696 61.1201 29.5883 61.1201 29.2951V16.3078C61.1201 16.0146 61.0036 15.7334 60.7962 15.526C60.5888 15.3187 60.3075 15.2022 60.0142 15.2022H54.5919C54.2986 15.2022 54.0173 15.3187 53.8099 15.526C53.6026 15.7334 53.486 16.0146 53.486 16.3078V29.2951C53.486 29.5883 53.3695 29.8696 53.1622 30.0769C52.9548 30.2843 52.6735 30.4007 52.3802 30.4007H46.9505C46.6572 30.4007 46.3759 30.2843 46.1685 30.0769C45.9612 29.8696 45.8447 29.5883 45.8447 29.2951V8.70488C45.8447 8.41165 45.9612 8.13043 46.1685 7.92309C46.3759 7.71575 46.6572 7.59926 46.9505 7.59926" fill="black"/>
<path d="M102.663 7.59926H104.174C105.926 7.61191 107.601 8.31639 108.835 9.55908C110.069 10.8018 110.761 12.4819 110.761 14.233V29.2951C110.761 29.5883 110.645 29.8696 110.438 30.0769C110.23 30.2843 109.949 30.4007 109.656 30.4007H104.237C103.944 30.4007 103.662 30.2843 103.455 30.0769C103.248 29.8696 103.131 29.5883 103.131 29.2951V16.3078C103.131 16.0146 103.015 15.7334 102.807 15.526C102.6 15.3187 102.319 15.2022 102.025 15.2022H96.603C96.3097 15.2022 96.0284 15.3187 95.821 15.526C95.6136 15.7334 95.4971 16.0146 95.4971 16.3078V29.2951C95.4971 29.5883 95.3806 29.8696 95.1732 30.0769C94.9658 30.2843 94.6846 30.4007 94.3913 30.4007H88.9616C88.6683 30.4007 88.387 30.2843 88.1796 30.0769C87.9722 29.8696 87.8557 29.5883 87.8557 29.2951V8.70488C87.8557 8.41165 87.9722 8.13043 88.1796 7.92309C88.387 7.71575 88.6683 7.59926 88.9616 7.59926" fill="black"/>
<path d="M115.697 15.2022C115.404 15.2022 115.123 15.0857 114.915 14.8784C114.708 14.671 114.591 14.3898 114.591 14.0966V8.70488C114.591 8.41165 114.708 8.13043 114.915 7.92309C115.123 7.71575 115.404 7.59926 115.697 7.59926H121.108C121.402 7.59926 121.683 7.71575 121.89 7.92309C122.098 8.13043 122.214 8.41165 122.214 8.70488V14.0929C122.214 14.3861 122.098 14.6674 121.89 14.8747C121.683 15.082 121.402 15.1985 121.108 15.1985L115.697 15.2022ZM115.697 30.4007C115.404 30.4007 115.123 30.2843 114.915 30.0769C114.708 29.8696 114.591 29.5883 114.591 29.2951V20.1111C114.591 19.8179 114.708 19.5367 114.915 19.3294C115.123 19.122 115.404 19.0055 115.697 19.0055H121.108C121.402 19.0055 121.683 19.122 121.89 19.3294C122.098 19.5367 122.214 19.8179 122.214 20.1111V29.2951C122.214 29.5883 122.098 29.8696 121.89 30.0769C121.683 30.2843 121.402 30.4007 121.108 30.4007H115.697Z" fill="black"/>
<path d="M126.033 15.2022H125.536C125.005 15.2022 124.496 14.9914 124.12 14.6161C123.745 14.2408 123.534 13.7318 123.534 13.201V9.92474C123.534 9.394 123.745 8.885 124.12 8.5097C124.496 8.13441 125.005 7.92358 125.536 7.92358H126.033V1.10562C126.033 0.812388 126.15 0.53117 126.357 0.323827C126.564 0.116484 126.846 0 127.139 0H132.554C132.847 0 133.129 0.116484 133.336 0.323827C133.543 0.53117 133.66 0.812388 133.66 1.10562V6.48628C133.66 6.7795 133.776 7.06072 133.984 7.26806C134.191 7.47541 134.472 7.59189 134.766 7.59189H140.173C140.467 7.59189 140.748 7.70838 140.955 7.91572C141.163 8.12306 141.279 8.40428 141.279 8.69751V14.0929C141.279 14.3861 141.163 14.6674 140.955 14.8747C140.748 15.082 140.467 15.1985 140.173 15.1985H134.788C134.494 15.1985 134.213 15.315 134.006 15.5224C133.798 15.7297 133.682 16.0109 133.682 16.3041V21.6922C133.682 21.9854 133.798 22.2666 134.006 22.474C134.213 22.6813 134.494 22.7978 134.788 22.7978H140.195C140.489 22.7978 140.77 22.9143 140.977 23.1216C141.185 23.329 141.301 23.6102 141.301 23.9034V29.2951C141.301 29.5883 141.185 29.8696 140.977 30.0769C140.77 30.2843 140.489 30.4007 140.195 30.4007H134.135L129.929 30.456C129.42 30.4634 128.914 30.3692 128.441 30.179C127.969 29.9888 127.539 29.7064 127.176 29.3482C126.814 28.99 126.527 28.5633 126.331 28.0929C126.135 27.6225 126.035 27.1179 126.037 26.6085" fill="black"/>
<path d="M153.23 30.4007H150.137C149.48 30.4012 148.83 30.2723 148.223 30.0214C147.616 29.7705 147.065 29.4024 146.6 28.9383C146.136 28.4742 145.767 27.9232 145.516 27.3166C145.264 26.7101 145.135 26.0599 145.135 25.4034V8.70488C145.135 8.41165 145.251 8.13043 145.459 7.92309C145.666 7.71575 145.947 7.59926 146.241 7.59926H151.648C151.942 7.59926 152.223 7.71575 152.43 7.92309C152.638 8.13043 152.754 8.41165 152.754 8.70488V21.6922C152.754 21.9854 152.871 22.2666 153.078 22.474C153.285 22.6813 153.567 22.7978 153.86 22.7978H159.275C159.568 22.7978 159.849 22.6813 160.057 22.474C160.264 22.2666 160.381 21.9854 160.381 21.6922V8.70488C160.381 8.41165 160.497 8.13043 160.705 7.92309C160.912 7.71575 161.193 7.59926 161.487 7.59926H166.894C167.187 7.59926 167.469 7.71575 167.676 7.92309C167.883 8.13043 168 8.41165 168 8.70488V36.8944C168 37.1876 167.883 37.4688 167.676 37.6762C167.469 37.8835 167.187 38 166.894 38H161.523C161.23 38 160.949 37.8835 160.741 37.6762C160.534 37.4688 160.418 37.1876 160.418 36.8944V31.51C160.418 31.2168 160.301 30.9356 160.094 30.7282C159.886 30.5209 159.605 30.4044 159.312 30.4044" fill="black"/>
<path d="M19.2159 16.271V11.5242C19.2148 10.4767 19.6252 9.47062 20.3588 8.72271C21.0924 7.9748 22.0904 7.54488 23.138 7.52555L27.8599 7.43342H40.2196C40.4387 7.43148 40.656 7.47276 40.8592 7.55492C41.0623 7.63707 41.2472 7.75847 41.4034 7.91218C41.5595 8.06589 41.6838 8.24887 41.7691 8.45066C41.8544 8.65246 41.899 8.86909 41.9005 9.08816V14.045C41.8976 14.5783 41.7202 15.096 41.3955 15.5192L37.3628 20.8187C37.151 21.0979 36.8573 21.304 36.5228 21.4084C36.1882 21.5128 35.8294 21.5103 35.4963 21.4012C35.1633 21.2921 34.8726 21.0818 34.6647 20.7997C34.4568 20.5176 34.342 20.1777 34.3365 19.8274V16.9528C34.3326 16.5116 34.1538 16.09 33.8394 15.7805C33.525 15.471 33.1006 15.2988 32.6593 15.3017H28.4571C28.2383 15.2998 28.0212 15.3409 27.8183 15.4229C27.6155 15.5048 27.4307 15.6259 27.2746 15.7792C27.1185 15.9325 26.9942 16.115 26.9087 16.3164C26.8231 16.5178 26.7781 16.734 26.7762 16.9528V21.0657C26.7781 21.2844 26.8231 21.5007 26.9087 21.702C26.9942 21.9034 27.1185 22.0859 27.2746 22.2393C27.4307 22.3926 27.6155 22.5136 27.8183 22.5956C28.0212 22.6775 28.2383 22.7187 28.4571 22.7167H39.3792C39.7077 22.7138 40.0335 22.7757 40.3381 22.8988C40.6427 23.0219 40.92 23.2038 41.1542 23.4342C41.3883 23.6646 41.5748 23.9388 41.7028 24.2413C41.8309 24.5438 41.8981 24.8685 41.9005 25.197V27.6994C41.8947 28.3579 41.6294 28.9876 41.1622 29.4519C40.6951 29.9162 40.0637 30.1777 39.405 30.1796L20.9115 30.3713C20.6914 30.3757 20.4725 30.3363 20.2677 30.2554C20.0629 30.1745 19.8762 30.0538 19.7184 29.9002C19.5607 29.7466 19.435 29.5632 19.3487 29.3606C19.2625 29.158 19.2173 28.9404 19.2159 28.7202" fill="black"/>
</svg>
