<svg width="230" height="51" viewBox="0 0 230 51" fill="none" xmlns="http://www.w3.org/2000/svg">
<path d="M0 29.9837V1.48385C0 1.09031 0.159505 0.712887 0.443427 0.43461C0.727349 0.156334 1.11243 0 1.51395 0H8.93738C9.33891 0 9.72399 0.156334 10.0079 0.43461C10.2918 0.712887 10.4513 1.09031 10.4513 1.48385V29.1132C10.4513 29.5067 10.6108 29.8841 10.8948 30.1624C11.1787 30.4407 11.5638 30.597 11.9653 30.597H19.3988C19.8003 30.597 20.1854 30.7534 20.4693 31.0316C20.7533 31.3099 20.9128 31.6873 20.9128 32.0809V39.3171C20.9128 39.7107 20.7533 40.0881 20.4693 40.3664C20.1854 40.6447 19.8003 40.801 19.3988 40.801H4.10786C3.02014 40.801 1.97681 40.3782 1.20673 39.6252C0.436644 38.8723 0.00267255 37.8508 0 36.7847" fill="url(#paint0_linear_2573_10079)"/>
<path d="M103.958 10.199C106.891 10.199 109.705 11.3366 111.786 13.3634C113.866 15.3902 115.043 18.1415 115.061 21.0163V39.3171C115.061 39.7107 114.901 40.0881 114.617 40.3664C114.333 40.6447 113.948 40.801 113.547 40.801H106.103C105.701 40.801 105.316 40.6447 105.032 40.3664C104.749 40.0881 104.589 39.7107 104.589 39.3171V21.8868C104.589 21.4933 104.43 21.1159 104.146 20.8376C103.862 20.5593 103.477 20.403 103.075 20.403H95.6517C95.2501 20.403 94.8651 20.5593 94.5811 20.8376C94.2972 21.1159 94.1377 21.4933 94.1377 21.8868V39.3171C94.1377 39.7107 93.9782 40.0881 93.6943 40.3664C93.4104 40.6447 93.0253 40.801 92.6237 40.801H85.1902C84.7887 40.801 84.4036 40.6447 84.1197 40.3664C83.8358 40.0881 83.6763 39.7107 83.6763 39.3171V21.8868C83.6763 21.4933 83.5168 21.1159 83.2329 20.8376C82.9489 20.5593 82.5639 20.403 82.1623 20.403H74.7389C74.3374 20.403 73.9523 20.5593 73.6684 20.8376C73.3845 21.1159 73.225 21.4933 73.225 21.8868V39.3171C73.225 39.7107 73.0654 40.0881 72.7815 40.3664C72.4976 40.6447 72.1125 40.801 71.711 40.801H64.2775C63.876 40.801 63.4909 40.6447 63.2069 40.3664C62.923 40.0881 62.7635 39.7107 62.7635 39.3171V11.6829C62.7635 11.2893 62.923 10.9119 63.2069 10.6336C63.4909 10.3553 63.876 10.199 64.2775 10.199" fill="url(#paint1_linear_2573_10079)"/>
<path d="M140.551 10.199H142.62C145.017 10.216 147.311 11.1615 149 12.8293C150.69 14.4971 151.638 16.752 151.638 19.1021V39.3171C151.638 39.7107 151.478 40.0881 151.194 40.3664C150.91 40.6447 150.525 40.801 150.124 40.801H142.705C142.304 40.801 141.919 40.6447 141.635 40.3664C141.351 40.0881 141.191 39.7107 141.191 39.3171V21.8868C141.191 21.4933 141.032 21.1159 140.748 20.8376C140.464 20.5593 140.079 20.403 139.677 20.403H132.254C131.853 20.403 131.467 20.5593 131.184 20.8376C130.9 21.1159 130.74 21.4933 130.74 21.8868V39.3171C130.74 39.7107 130.581 40.0881 130.297 40.3664C130.013 40.6447 129.628 40.801 129.226 40.801H121.793C121.391 40.801 121.006 40.6447 120.722 40.3664C120.438 40.0881 120.279 39.7107 120.279 39.3171V11.6829C120.279 11.2893 120.438 10.9119 120.722 10.6336C121.006 10.3553 121.391 10.199 121.793 10.199" fill="url(#paint2_linear_2573_10079)"/>
<path d="M158.395 20.403C157.993 20.403 157.608 20.2466 157.324 19.9684C157.041 19.6901 156.881 19.3127 156.881 18.9191V11.6829C156.881 11.2893 157.041 10.9119 157.324 10.6336C157.608 10.3553 157.993 10.199 158.395 10.199H165.803C166.205 10.199 166.59 10.3553 166.874 10.6336C167.158 10.9119 167.317 11.2893 167.317 11.6829V18.9142C167.317 19.3077 167.158 19.6851 166.874 19.9634C166.59 20.2417 166.205 20.398 165.803 20.398L158.395 20.403ZM158.395 40.801C157.993 40.801 157.608 40.6447 157.324 40.3664C157.041 40.0881 156.881 39.7107 156.881 39.3171V26.9913C156.881 26.5977 157.041 26.2203 157.324 25.942C157.608 25.6638 157.993 25.5074 158.395 25.5074H165.803C166.205 25.5074 166.59 25.6638 166.874 25.942C167.158 26.2203 167.317 26.5977 167.317 26.9913V39.3171C167.317 39.7107 167.158 40.0881 166.874 40.3664C166.59 40.6447 166.205 40.801 165.803 40.801H158.395Z" fill="url(#paint3_linear_2573_10079)"/>
<path d="M172.545 20.403H171.864C171.137 20.403 170.44 20.12 169.926 19.6163C169.413 19.1126 169.124 18.4295 169.124 17.7172V13.32C169.124 12.6077 169.413 11.9246 169.926 11.4209C170.44 10.9172 171.137 10.6343 171.864 10.6343H172.545V1.48385C172.545 1.09031 172.705 0.712887 172.989 0.43461C173.273 0.156334 173.658 0 174.059 0H181.473C181.874 0 182.259 0.156334 182.543 0.43461C182.827 0.712887 182.987 1.09031 182.987 1.48385V8.70527C182.987 9.09881 183.146 9.47623 183.43 9.75451C183.714 10.0328 184.099 10.1891 184.501 10.1891H191.904C192.305 10.1891 192.69 10.3455 192.974 10.6237C193.258 10.902 193.418 11.2794 193.418 11.673V18.9142C193.418 19.3077 193.258 19.6851 192.974 19.9634C192.69 20.2417 192.305 20.398 191.904 20.398H184.531C184.129 20.398 183.744 20.5544 183.46 20.8326C183.176 21.1109 183.017 21.4883 183.017 21.8819V29.1132C183.017 29.5067 183.176 29.8841 183.46 30.1624C183.744 30.4407 184.129 30.597 184.531 30.597H191.934C192.336 30.597 192.721 30.7534 193.005 31.0316C193.289 31.3099 193.448 31.6873 193.448 32.0809V39.3171C193.448 39.7107 193.289 40.0881 193.005 40.3664C192.721 40.6447 192.336 40.801 191.934 40.801H183.638L177.88 40.8752C177.182 40.885 176.49 40.7586 175.842 40.5034C175.195 40.2481 174.607 39.869 174.11 39.3884C173.614 38.9077 173.221 38.335 172.953 37.7037C172.685 37.0724 172.548 36.3951 172.55 35.7114" fill="url(#paint4_linear_2573_10079)"/>
<path d="M209.779 40.801H205.545C204.646 40.8016 203.755 40.6286 202.924 40.2919C202.093 39.9551 201.339 39.4612 200.703 38.8383C200.067 38.2154 199.562 37.4758 199.218 36.6618C198.874 35.8477 198.696 34.9752 198.696 34.094V11.6829C198.696 11.2893 198.856 10.9119 199.14 10.6336C199.424 10.3553 199.809 10.199 200.21 10.199H207.614C208.015 10.199 208.4 10.3553 208.684 10.6336C208.968 10.9119 209.128 11.2893 209.128 11.6829V29.1132C209.128 29.5067 209.287 29.8841 209.571 30.1624C209.855 30.4407 210.24 30.597 210.642 30.597H218.055C218.456 30.597 218.842 30.4407 219.125 30.1624C219.409 29.8841 219.569 29.5067 219.569 29.1132V11.6829C219.569 11.2893 219.728 10.9119 220.012 10.6336C220.296 10.3553 220.681 10.199 221.083 10.199H228.486C228.888 10.199 229.273 10.3553 229.557 10.6336C229.84 10.9119 230 11.2893 230 11.6829V49.5161C230 49.9097 229.84 50.2871 229.557 50.5654C229.273 50.8437 228.888 51 228.486 51H221.133C220.732 51 220.347 50.8437 220.063 50.5654C219.779 50.2871 219.619 49.9097 219.619 49.5161V42.2898C219.619 41.8962 219.46 41.5188 219.176 41.2405C218.892 40.9623 218.507 40.8059 218.105 40.8059" fill="url(#paint5_linear_2573_10079)"/>
<path d="M26.3075 21.8374V15.4667C26.3059 14.0608 26.8678 12.7106 27.8721 11.7068C28.8764 10.703 30.2428 10.126 31.677 10.1001L38.1416 9.97643H55.0625C55.3625 9.97382 55.6601 10.0292 55.9382 10.1395C56.2162 10.2498 56.4694 10.4127 56.6832 10.619C56.8969 10.8253 57.0671 11.0709 57.1839 11.3417C57.3006 11.6125 57.3618 11.9033 57.3638 12.1973V18.8499C57.3598 19.5656 57.117 20.2605 56.6724 20.8283L51.1515 27.9409C50.8615 28.3156 50.4594 28.5922 50.0014 28.7323C49.5434 28.8724 49.0522 28.869 48.5962 28.7226C48.1402 28.5762 47.7422 28.294 47.4576 27.9154C47.173 27.5368 47.0159 27.0806 47.0083 26.6104V22.7524C47.003 22.1603 46.7582 21.5945 46.3277 21.1791C45.8973 20.7636 45.3162 20.5326 44.7121 20.5365H38.9591C38.6596 20.5339 38.3624 20.5892 38.0846 20.6991C37.8069 20.809 37.5539 20.9715 37.3402 21.1773C37.1265 21.3831 36.9563 21.6281 36.8392 21.8983C36.7221 22.1686 36.6605 22.4588 36.6579 22.7524V28.2723C36.6605 28.5659 36.7221 28.8561 36.8392 29.1264C36.9563 29.3966 37.1265 29.6417 37.3402 29.8474C37.5539 30.0532 37.8069 30.2157 38.0846 30.3256C38.3624 30.4356 38.6596 30.4908 38.9591 30.4882H53.9119C54.3617 30.4843 54.8078 30.5673 55.2248 30.7326C55.6418 30.8978 56.0214 31.142 56.342 31.4512C56.6626 31.7603 56.9179 32.1284 57.0932 32.5344C57.2685 32.9403 57.3605 33.3762 57.3638 33.817V37.1754C57.3558 38.0593 56.9926 38.9044 56.3531 39.5276C55.7135 40.1507 54.8491 40.5017 53.9473 40.5042L28.6289 40.7614C28.3275 40.7673 28.0279 40.7145 27.7475 40.6059C27.4671 40.4974 27.2114 40.3354 26.9955 40.1292C26.7795 39.923 26.6075 39.6769 26.4894 39.405C26.3713 39.1332 26.3094 38.841 26.3075 38.5455" fill="url(#paint6_linear_2573_10079)"/>
<defs>
<linearGradient id="paint0_linear_2573_10079" x1="-1.36223e-07" y1="25.5" x2="230.046" y2="34.7216" gradientUnits="userSpaceOnUse">
<stop stop-color="#1E05B1"/>
<stop offset="1" stop-color="#9244FB"/>
</linearGradient>
<linearGradient id="paint1_linear_2573_10079" x1="-1.36223e-07" y1="25.5" x2="230.046" y2="34.7216" gradientUnits="userSpaceOnUse">
<stop stop-color="#1E05B1"/>
<stop offset="1" stop-color="#9244FB"/>
</linearGradient>
<linearGradient id="paint2_linear_2573_10079" x1="-1.36223e-07" y1="25.5" x2="230.046" y2="34.7216" gradientUnits="userSpaceOnUse">
<stop stop-color="#1E05B1"/>
<stop offset="1" stop-color="#9244FB"/>
</linearGradient>
<linearGradient id="paint3_linear_2573_10079" x1="-1.36223e-07" y1="25.5" x2="230.046" y2="34.7216" gradientUnits="userSpaceOnUse">
<stop stop-color="#1E05B1"/>
<stop offset="1" stop-color="#9244FB"/>
</linearGradient>
<linearGradient id="paint4_linear_2573_10079" x1="-1.36223e-07" y1="25.5" x2="230.046" y2="34.7216" gradientUnits="userSpaceOnUse">
<stop stop-color="#1E05B1"/>
<stop offset="1" stop-color="#9244FB"/>
</linearGradient>
<linearGradient id="paint5_linear_2573_10079" x1="-1.36223e-07" y1="25.5" x2="230.046" y2="34.7216" gradientUnits="userSpaceOnUse">
<stop stop-color="#1E05B1"/>
<stop offset="1" stop-color="#9244FB"/>
</linearGradient>
<linearGradient id="paint6_linear_2573_10079" x1="-1.36223e-07" y1="25.5" x2="230.046" y2="34.7216" gradientUnits="userSpaceOnUse">
<stop stop-color="#1E05B1"/>
<stop offset="1" stop-color="#9244FB"/>
</linearGradient>
</defs>
</svg>
