<svg width="235" height="38" viewBox="0 0 235 38" fill="none" xmlns="http://www.w3.org/2000/svg">
<g clip-path="url(#clip0_541_12308)">
<path d="M8.00407 30.4015C7.71216 30.4015 7.43221 30.2847 7.22584 30.0769L0.322085 23.1237C0.115852 22.9159 0 22.6343 0 22.3406V1.10766C0 0.495914 0.492627 0 1.10031 0H6.44784C7.05552 0 7.54815 0.495915 7.54815 1.10766V21.6916C7.54815 22.3033 8.04078 22.7993 8.64846 22.7993H13.9997C14.6073 22.7993 15.1 23.2952 15.1 23.9069V29.2938C15.1 29.9056 14.6073 30.4015 13.9997 30.4015H8.00407Z" fill="#201600"/>
<path d="M19.978 30.4015C19.3703 30.4015 18.8777 29.9056 18.8777 29.2938V15.6595C18.8777 15.3658 18.9936 15.084 19.2 14.8763L26.1072 7.92295C26.3136 7.71522 26.5935 7.59852 26.8853 7.59852H40.4292C41.0369 7.59852 41.5295 8.09444 41.5295 8.70618V14.7418C41.5295 15.0356 41.4135 15.3175 41.207 15.5252L33.9777 22.7993H40.4292C41.0369 22.7993 41.5295 23.2952 41.5295 23.9069V29.2938C41.5295 29.9056 41.0369 30.4015 40.4292 30.4015H19.978ZM33.9777 22.7993V16.3084C33.9777 15.6967 33.485 15.2007 32.8774 15.2007H27.5298C26.9221 15.2007 26.4295 15.6967 26.4295 16.3084V21.6916C26.4295 22.3033 26.9221 22.7993 27.5298 22.7993H33.9777Z" fill="#201600"/>
<path d="M46.4075 30.4015C45.7999 30.4015 45.3072 29.9056 45.3072 29.2938V8.70618C45.3072 8.09444 45.7999 7.59852 46.4075 7.59852H75.0517C75.3433 7.59852 75.623 7.71508 75.8294 7.92257L82.7437 14.8762C82.9502 15.084 83.0663 15.3659 83.0663 15.6599V29.2938C83.0663 29.9056 82.5737 30.4015 81.966 30.4015H76.6075C75.9998 30.4015 75.5072 29.9056 75.5072 29.2938V16.3084C75.5072 15.6967 75.0145 15.2007 74.4068 15.2007H69.0593C68.4516 15.2007 67.959 15.6967 67.959 16.3084V29.2938C67.959 29.9056 67.4664 30.4015 66.8587 30.4015H61.5075C60.8998 30.4015 60.4072 29.9056 60.4072 29.2938V16.3084C60.4072 15.6967 59.9146 15.2007 59.3069 15.2007H53.9594C53.3517 15.2007 52.859 15.6967 52.859 16.3084V29.2938C52.859 29.9056 52.3664 30.4015 51.7587 30.4015H46.4075Z" fill="#201600"/>
<path d="M87.937 30.4015C87.3293 30.4015 86.8367 29.9056 86.8367 29.2938V8.70618C86.8367 8.09444 87.3293 7.59852 87.937 7.59852H101.481C101.773 7.59852 102.053 7.7153 102.259 7.92314L109.163 14.8763C109.369 15.0841 109.485 15.3657 109.485 15.6594V29.2938C109.485 29.9056 108.992 30.4015 108.385 30.4015H103.037C102.429 30.4015 101.937 29.9056 101.937 29.2938V16.3084C101.937 15.6967 101.444 15.2007 100.836 15.2007H95.4889C94.8812 15.2007 94.3885 15.6967 94.3885 16.3084V29.2938C94.3885 29.9056 93.8959 30.4015 93.2882 30.4015H87.937Z" fill="#201600"/>
<path d="M114.367 15.2007C113.759 15.2007 113.266 14.7048 113.266 14.0931V8.70618C113.266 8.09444 113.759 7.59852 114.367 7.59852H119.714C120.322 7.59852 120.814 8.09444 120.814 8.70618V14.0931C120.814 14.7048 120.322 15.2007 119.714 15.2007H114.367ZM114.367 30.4015C113.759 30.4015 113.266 29.9056 113.266 29.2938V20.1113C113.266 19.4996 113.759 19.0037 114.367 19.0037H119.714C120.322 19.0037 120.814 19.4996 120.814 20.1114V29.2938C120.814 29.9056 120.322 30.4015 119.714 30.4015H114.367Z" fill="#201600"/>
<path d="M132.592 30.4015C132.301 30.4015 132.021 30.2848 131.814 30.0771L124.907 23.1237C124.701 22.916 124.585 22.6342 124.585 22.3405V1.10766C124.585 0.495914 125.077 0 125.685 0H131.036C131.644 0 132.137 0.495915 132.137 1.10766V6.49087C132.137 7.10261 132.629 7.59852 133.237 7.59852H138.584C139.192 7.59852 139.685 8.09444 139.685 8.70618V14.0931C139.685 14.7048 139.192 15.2007 138.584 15.2007H133.237C132.629 15.2007 132.137 15.6967 132.137 16.3084V21.6916C132.137 22.3033 132.629 22.7993 133.237 22.7993H138.584C139.192 22.7993 139.685 23.2952 139.685 23.9069V29.2938C139.685 29.9056 139.192 30.4015 138.584 30.4015H132.592Z" fill="#201600"/>
<path d="M159.666 38C159.059 38 158.566 37.5041 158.566 36.8923V31.5091C158.566 30.8974 158.074 30.4015 157.466 30.4015H151.47C151.178 30.4015 150.898 30.2847 150.692 30.0769L143.788 23.1237C143.582 22.9159 143.466 22.6343 143.466 22.3406V8.70618C143.466 8.09444 143.959 7.59852 144.566 7.59852H149.914C150.522 7.59852 151.014 8.09444 151.014 8.70618V21.6916C151.014 22.3033 151.507 22.7993 152.115 22.7993H157.466C158.074 22.7993 158.566 22.3033 158.566 21.6916V8.70618C158.566 8.09444 159.059 7.59852 159.666 7.59852H165.014C165.622 7.59852 166.114 8.09444 166.114 8.70618V36.8923C166.114 37.5041 165.622 38 165.014 38H159.666Z" fill="#201600"/>
<rect x="176.971" y="7.5" width="58" height="23" rx="3" fill="#D1CECE"/>
<path d="M193.991 25.88V16.652C193.991 15.964 194.111 15.416 194.351 15.008C194.599 14.592 194.931 14.292 195.347 14.108C195.763 13.916 196.227 13.82 196.739 13.82C197.283 13.82 197.743 13.908 198.119 14.084C198.503 14.26 198.791 14.52 198.983 14.864C199.183 15.2 199.283 15.616 199.283 16.112C199.283 16.496 199.203 16.828 199.043 17.108C198.891 17.38 198.687 17.604 198.431 17.78C198.175 17.948 197.891 18.064 197.579 18.128V18.176C197.987 18.232 198.347 18.356 198.659 18.548C198.971 18.74 199.215 19.004 199.391 19.34C199.575 19.668 199.667 20.076 199.667 20.564C199.667 21.108 199.543 21.572 199.295 21.956C199.055 22.34 198.723 22.632 198.299 22.832C197.883 23.024 197.411 23.12 196.883 23.12C196.595 23.12 196.343 23.104 196.127 23.072C195.919 23.04 195.731 22.992 195.563 22.928C195.395 22.864 195.223 22.792 195.047 22.712V25.88H193.991ZM196.787 22.256C197.347 22.256 197.791 22.104 198.119 21.8C198.447 21.488 198.611 21.052 198.611 20.492C198.611 20.068 198.527 19.72 198.359 19.448C198.199 19.168 197.983 18.96 197.711 18.824C197.447 18.68 197.163 18.608 196.859 18.608H195.863V17.792H196.739C197.043 17.792 197.303 17.724 197.519 17.588C197.743 17.452 197.911 17.26 198.023 17.012C198.143 16.764 198.203 16.48 198.203 16.16C198.203 15.664 198.055 15.296 197.759 15.056C197.471 14.816 197.123 14.696 196.715 14.696C196.435 14.696 196.167 14.752 195.911 14.864C195.655 14.968 195.447 15.164 195.287 15.452C195.127 15.74 195.047 16.156 195.047 16.7V21.764C195.327 21.908 195.595 22.028 195.851 22.124C196.107 22.212 196.419 22.256 196.787 22.256ZM203.775 23.12C202.943 23.12 202.283 22.868 201.795 22.364C201.307 21.852 201.039 21.156 200.991 20.276C200.983 20.172 200.979 20.04 200.979 19.88C200.979 19.712 200.983 19.576 200.991 19.472C201.023 18.904 201.155 18.408 201.387 17.984C201.619 17.552 201.935 17.22 202.335 16.988C202.743 16.756 203.219 16.64 203.763 16.64C204.371 16.64 204.879 16.768 205.287 17.024C205.703 17.28 206.019 17.644 206.235 18.116C206.451 18.588 206.559 19.14 206.559 19.772V19.976C206.559 20.064 206.531 20.132 206.475 20.18C206.427 20.228 206.363 20.252 206.283 20.252H202.131C202.131 20.26 202.131 20.276 202.131 20.3C202.131 20.324 202.131 20.344 202.131 20.36C202.147 20.688 202.219 20.996 202.347 21.284C202.475 21.564 202.659 21.792 202.899 21.968C203.147 22.144 203.435 22.232 203.763 22.232C204.051 22.232 204.291 22.188 204.483 22.1C204.675 22.012 204.831 21.916 204.951 21.812C205.071 21.7 205.151 21.612 205.191 21.548C205.263 21.452 205.319 21.396 205.359 21.38C205.399 21.356 205.463 21.344 205.551 21.344H206.139C206.211 21.344 206.271 21.368 206.319 21.416C206.375 21.456 206.399 21.516 206.391 21.596C206.383 21.716 206.319 21.864 206.199 22.04C206.079 22.208 205.907 22.376 205.683 22.544C205.467 22.712 205.195 22.852 204.867 22.964C204.547 23.068 204.183 23.12 203.775 23.12ZM202.131 19.424H205.419V19.388C205.419 19.028 205.351 18.708 205.215 18.428C205.087 18.148 204.899 17.928 204.651 17.768C204.403 17.6 204.107 17.516 203.763 17.516C203.419 17.516 203.123 17.6 202.875 17.768C202.635 17.928 202.451 18.148 202.323 18.428C202.195 18.708 202.131 19.028 202.131 19.388V19.424ZM210.454 23C210.006 23 209.642 22.916 209.362 22.748C209.082 22.572 208.878 22.328 208.75 22.016C208.622 21.696 208.558 21.32 208.558 20.888V17.72H207.622C207.542 17.72 207.474 17.696 207.418 17.648C207.37 17.592 207.346 17.524 207.346 17.444V17.036C207.346 16.956 207.37 16.892 207.418 16.844C207.474 16.788 207.542 16.76 207.622 16.76H208.558V14.756C208.558 14.676 208.582 14.612 208.63 14.564C208.686 14.508 208.754 14.48 208.834 14.48H209.398C209.478 14.48 209.542 14.508 209.59 14.564C209.646 14.612 209.674 14.676 209.674 14.756V16.76H211.162C211.25 16.76 211.318 16.788 211.366 16.844C211.414 16.892 211.438 16.956 211.438 17.036V17.444C211.438 17.524 211.414 17.592 211.366 17.648C211.318 17.696 211.25 17.72 211.162 17.72H209.674V20.804C209.674 21.18 209.738 21.476 209.866 21.692C209.994 21.908 210.222 22.016 210.55 22.016H211.282C211.362 22.016 211.426 22.044 211.474 22.1C211.53 22.148 211.558 22.212 211.558 22.292V22.724C211.558 22.804 211.53 22.872 211.474 22.928C211.426 22.976 211.362 23 211.282 23H210.454ZM214.506 23.12C214.106 23.12 213.742 23.04 213.414 22.88C213.086 22.72 212.822 22.504 212.622 22.232C212.422 21.96 212.322 21.652 212.322 21.308C212.322 20.756 212.546 20.316 212.994 19.988C213.442 19.66 214.026 19.444 214.746 19.34L216.534 19.088V18.74C216.534 18.356 216.422 18.056 216.198 17.84C215.982 17.624 215.626 17.516 215.13 17.516C214.778 17.516 214.49 17.588 214.266 17.732C214.042 17.876 213.886 18.06 213.798 18.284C213.75 18.404 213.666 18.464 213.546 18.464H213.006C212.918 18.464 212.85 18.44 212.802 18.392C212.762 18.336 212.742 18.272 212.742 18.2C212.742 18.08 212.786 17.932 212.874 17.756C212.97 17.58 213.114 17.408 213.306 17.24C213.498 17.072 213.742 16.932 214.038 16.82C214.342 16.7 214.71 16.64 215.142 16.64C215.622 16.64 216.026 16.704 216.354 16.832C216.682 16.952 216.938 17.116 217.122 17.324C217.314 17.532 217.45 17.768 217.53 18.032C217.618 18.296 217.662 18.564 217.662 18.836V22.724C217.662 22.804 217.634 22.872 217.578 22.928C217.53 22.976 217.466 23 217.386 23H216.834C216.746 23 216.678 22.976 216.63 22.928C216.582 22.872 216.558 22.804 216.558 22.724V22.208C216.454 22.352 216.314 22.496 216.138 22.64C215.962 22.776 215.742 22.892 215.478 22.988C215.214 23.076 214.89 23.12 214.506 23.12ZM214.758 22.22C215.086 22.22 215.386 22.152 215.658 22.016C215.93 21.872 216.142 21.652 216.294 21.356C216.454 21.06 216.534 20.688 216.534 20.24V19.904L215.142 20.108C214.574 20.188 214.146 20.324 213.858 20.516C213.57 20.7 213.426 20.936 213.426 21.224C213.426 21.448 213.49 21.636 213.618 21.788C213.754 21.932 213.922 22.04 214.122 22.112C214.33 22.184 214.542 22.22 214.758 22.22Z" fill="black"/>
</g>
<defs>
<clipPath id="clip0_541_12308">
<rect width="234.971" height="38" fill="white"/>
</clipPath>
</defs>
</svg>
