<svg width="26" height="26" viewBox="0 0 26 26" fill="none" xmlns="http://www.w3.org/2000/svg">
<path fill-rule="evenodd" clip-rule="evenodd" d="M0 13C0 5.82272 5.82272 0 13 0C20.1773 0 26 5.82272 26 13C26 20.1773 20.1773 26 13 26C5.82272 26 0 20.1773 0 13ZM13 2C6.92728 2 2 6.92728 2 13C2 19.0727 6.92728 24 13 24C19.0727 24 24 19.0727 24 13C24 6.92728 19.0727 2 13 2ZM13 7C13.5523 7 14 7.44772 14 8V12H18C18.5523 12 19 12.4477 19 13C19 13.5523 18.5523 14 18 14H14V18C14 18.5523 13.5523 19 13 19C12.4477 19 12 18.5523 12 18V14H8C7.44772 14 7 13.5523 7 13C7 12.4477 7.44772 12 8 12H12V8C12 7.44772 12.4477 7 13 7Z" fill="#C0C0C0"/>
</svg>
