<svg width="20" height="20" viewBox="0 0 20 20" fill="none" xmlns="http://www.w3.org/2000/svg">
  <path d="M9.75 0C4.37391 0 0 4.37391 0 9.75C0 15.1261 4.37391 19.5 9.75 19.5C15.1261 19.5 19.5 15.1261 19.5 9.75C19.5 4.37391 15.1261 0 9.75 0ZM9.75 14.9958C9.56458 14.9958 9.38332 14.9408 9.22915 14.8378C9.07498 14.7348 8.95482 14.5884 8.88386 14.417C8.81291 14.2457 8.79434 14.0572 8.83051 13.8754C8.86669 13.6935 8.95598 13.5265 9.08709 13.3954C9.2182 13.2643 9.38525 13.175 9.5671 13.1388C9.74896 13.1026 9.93746 13.1212 10.1088 13.1921C10.2801 13.2631 10.4265 13.3833 10.5295 13.5374C10.6325 13.6916 10.6875 13.8729 10.6875 14.0583C10.6875 14.3069 10.5887 14.5454 10.4129 14.7212C10.2371 14.897 9.99864 14.9958 9.75 14.9958ZM10.7681 5.56687L10.4991 11.2856C10.4991 11.4845 10.42 11.6753 10.2794 11.816C10.1387 11.9566 9.94797 12.0356 9.74906 12.0356C9.55015 12.0356 9.35938 11.9566 9.21873 11.816C9.07808 11.6753 8.99906 11.4845 8.99906 11.2856L8.73 5.56969V5.56734C8.7241 5.42997 8.74607 5.29282 8.79458 5.16415C8.84308 5.03549 8.91713 4.91797 9.01225 4.81868C9.10737 4.71938 9.22161 4.64037 9.34807 4.58639C9.47454 4.53241 9.61062 4.50458 9.74813 4.50458C9.88563 4.50458 10.0217 4.53241 10.1482 4.58639C10.2746 4.64037 10.3889 4.71938 10.484 4.81868C10.5791 4.91797 10.6532 5.03549 10.7017 5.16415C10.7502 5.29282 10.7721 5.42997 10.7662 5.56734L10.7681 5.56687Z" fill="#FFB400"/>
</svg>
