<svg width="9" height="5" viewBox="0 0 9 5" fill="none" xmlns="http://www.w3.org/2000/svg">
  <path
    d="M0.000105692 4.65583C-5.0704e-05 4.4969 0.057721 4.34337 0.162606 4.22396L3.66261 0.223959C3.7242 0.153608 3.80012 0.0972317 3.88527 0.0586067C3.97043 0.0199816 4.06285 -1.85758e-07 4.15636 -1.81671e-07C4.24986 -1.77584e-07 4.34229 0.0199816 4.42744 0.0586067C4.51259 0.0972318 4.58851 0.153608 4.65011 0.223959L8.15011 4.22396C8.26473 4.35495 8.32262 4.52611 8.31105 4.69979C8.29947 4.87347 8.21938 5.03543 8.08839 5.15005C7.95739 5.26468 7.78623 5.32257 7.61256 5.31099C7.43888 5.29942 7.27692 5.21933 7.16229 5.08833L4.15636 1.6524L1.15042 5.08802C1.06251 5.18858 0.946013 5.25991 0.816487 5.2925C0.686962 5.32509 0.550576 5.31739 0.425547 5.27041C0.300518 5.22344 0.192799 5.13943 0.116778 5.02961C0.040757 4.91979 5.41873e-05 4.7894 0.000105692 4.65583Z"
    fill="currentColor"
  />
</svg>
