<svg width="9" height="5" viewBox="0 0 9 5" fill="none" xmlns="http://www.w3.org/2000/svg">
  <g transform="translate(0 -8)">
    <path
      d="M0.000105429 10.6558C-9.95943e-06 10.5222 0.0406471 10.3918 0.116643 10.2819C0.19264 10.1721 0.300358 10.088 0.425401 10.041C0.550444 9.99399 0.686856 9.98625 0.816411 10.0188C0.945966 10.0514 1.06249 10.1228 1.15042 10.2233L4.15636 13.6593L7.16229 10.2236C7.27692 10.0927 7.43888 10.0126 7.61256 10.001C7.78623 9.98941 7.95739 10.0473 8.08839 10.1619C8.21938 10.2766 8.29947 10.4385 8.31105 10.6122C8.32262 10.7859 8.26473 10.957 8.1501 11.088L4.65011 15.088C4.58851 15.1584 4.51259 15.2147 4.42744 15.2534C4.34228 15.292 4.24986 15.312 4.15636 15.312C4.06285 15.312 3.97042 15.292 3.88527 15.2534C3.80012 15.2147 3.7242 15.1584 3.66261 15.088L0.162606 11.088C0.0575996 10.9686 -0.000184495 10.8149 0.000105429 10.6558Z"
      fill="currentColor"
    />
  </g>
</svg>

