<svg width="30" height="30" viewBox="0 0 30 30" fill="none" xmlns="http://www.w3.org/2000/svg">
<g clip-path="url(#clip0_2343_11422)">
<path d="M22.5285 17.7039C24.4153 15.0336 25.2127 11.8488 24.7754 8.7348C24.5899 7.41755 24.1468 6.14973 23.4714 5.00373C22.7959 3.85773 21.9014 2.85598 20.8388 2.0557C19.7762 1.25542 18.5664 0.67227 17.2785 0.339548C15.9905 0.00682655 14.6496 -0.0689505 13.3324 0.116544C7.80158 0.893737 3.93348 6.02644 4.71067 11.5572C5.1468 14.662 6.79164 17.5005 9.34099 19.5504C10.7571 20.6842 12.3547 21.4804 13.8705 21.8365C13.9851 21.864 14.0848 21.9344 14.1491 22.0332C14.2134 22.132 14.2374 22.2517 14.2162 22.3676L13.9356 23.8875C13.8948 24.0943 13.9249 24.3088 14.0209 24.4964C14.0988 24.6461 14.2163 24.7714 14.3605 24.8589C14.5048 24.9464 14.6703 24.9926 14.839 24.9925C14.8819 24.9926 14.9249 24.9895 14.9674 24.9833L15.9935 24.8392C16.018 24.8358 16.0429 24.8404 16.0645 24.8522C16.0862 24.864 16.1035 24.8825 16.1139 24.9049C17.0772 26.9968 18.733 28.5835 20.8468 29.4194C20.9625 29.4651 21.0862 29.487 21.2106 29.4836C21.335 29.4802 21.4574 29.4517 21.5704 29.3997C21.6834 29.3478 21.7848 29.2735 21.8684 29.1813C21.9519 29.0892 22.016 28.981 22.0566 28.8635C22.2197 28.3922 21.9622 27.88 21.499 27.6951C20.0527 27.1173 18.8473 26.0628 18.0825 24.7061C18.0729 24.6898 18.0674 24.6713 18.0666 24.6523C18.0658 24.6333 18.0697 24.6144 18.078 24.5973C18.0862 24.5802 18.0986 24.5654 18.114 24.5542C18.1293 24.5431 18.1472 24.5359 18.1661 24.5333L18.5924 24.4757C18.8155 24.4469 19.0212 24.3402 19.1731 24.1744C19.2961 24.0368 19.3749 23.8656 19.3994 23.6828C19.424 23.4999 19.3931 23.314 19.3108 23.1489L18.616 21.7529C18.5632 21.6469 18.5533 21.5246 18.5883 21.4114C18.6232 21.2982 18.7004 21.2029 18.8038 21.1451C20.1629 20.3864 21.4799 19.1863 22.5285 17.7039ZM13.6043 18.6707C13.4883 18.6706 13.3734 18.6488 13.2656 18.6061C10.8885 17.6659 8.86972 15.5699 7.99689 13.1364C7.95435 13.0221 7.93493 12.9005 7.93974 12.7786C7.94455 12.6567 7.97351 12.537 8.02493 12.4264C8.07635 12.3157 8.14921 12.2164 8.23929 12.1342C8.32937 12.052 8.43487 11.9884 8.54969 11.9472C8.66451 11.9061 8.78636 11.8881 8.90818 11.8944C9.02999 11.9006 9.14936 11.931 9.25935 11.9837C9.36933 12.0365 9.46776 12.1105 9.54893 12.2016C9.63009 12.2926 9.69238 12.3989 9.73218 12.5142C10.5676 14.844 12.4555 16.3034 13.9437 16.8927C14.1432 16.9716 14.309 17.1176 14.4125 17.3057C14.5159 17.4937 14.5505 17.7119 14.5103 17.9227C14.4701 18.1335 14.3576 18.3237 14.1922 18.4604C14.0268 18.5972 13.8189 18.6719 13.6043 18.6718V18.6707Z" fill="white"/>
</g>
<defs>
<clipPath id="clip0_2343_11422">
<rect width="29.4976" height="29.4976" fill="white"/>
</clipPath>
</defs>
</svg>
