<svg width="18" height="18" viewBox="0 0 18 18" fill="none" xmlns="http://www.w3.org/2000/svg">
<rect width="17.4167" height="17.4167" transform="translate(0.291504 0.291656)" fill="white"/>
<path fill-rule="evenodd" clip-rule="evenodd" d="M4.11569 6.75757C4.11569 4.05493 6.31149 1.85913 9.01413 1.85913C11.7095 1.85913 13.9126 4.06218 13.9126 6.75757V8.85483C13.9126 9.01075 13.9479 9.23897 14.0147 9.48283C14.0808 9.72373 14.1661 9.93784 14.2438 10.0738L15.0759 11.4558C15.7331 12.5511 15.2078 13.9778 13.9971 14.3786C10.7577 15.4607 7.26246 15.4606 4.02305 14.3783L4.02103 14.3777C3.4097 14.1707 2.95123 13.7429 2.74625 13.1893C2.54102 12.6351 2.61084 12.0113 2.94541 11.4552L3.77882 10.0711C3.779 10.0707 3.77919 10.0704 3.77937 10.0701C3.85884 9.93652 3.94588 9.7232 4.01306 9.4812C4.08044 9.23847 4.11569 9.01059 4.11569 8.85483V6.75757ZM9.01413 2.94767C6.91267 2.94767 5.20423 4.65611 5.20423 6.75757V8.85483C5.20423 9.14174 5.14514 9.47264 5.06194 9.77236C4.97869 10.0723 4.85917 10.3846 4.71382 10.6285L4.7126 10.6305L3.87813 12.0164C3.8781 12.0165 3.87816 12.0164 3.87813 12.0164C3.69754 12.3167 3.68746 12.5964 3.76705 12.8114C3.84683 13.0268 4.03757 13.2338 4.36904 13.3462C7.38455 14.3535 10.6376 14.3534 13.653 13.3459L13.6547 13.3454C14.1995 13.1652 14.443 12.5172 14.1428 12.0162C14.1427 12.0161 14.1428 12.0164 14.1428 12.0162L13.3032 10.6218C13.1638 10.3802 13.047 10.0699 12.965 9.77073C12.8831 9.47214 12.824 9.14157 12.824 8.85483V6.75757C12.824 4.66337 11.1083 2.94767 9.01413 2.94767Z" fill="#3D3D3B"/>
<path fill-rule="evenodd" clip-rule="evenodd" d="M7.16498 2.41527C7.45485 1.67558 8.17453 1.15521 9.01426 1.15521C9.85399 1.15521 10.5737 1.67558 10.8635 2.41527C10.9392 2.60836 10.8986 2.82767 10.7587 2.98082C10.6189 3.13398 10.4042 3.19437 10.205 3.13655C10.0037 3.0781 9.80055 3.034 9.59463 3.00904L9.59262 3.00879C8.96532 2.93038 8.3726 2.97692 7.82365 3.13649C7.62448 3.19439 7.40971 3.13405 7.26983 2.98089C7.12996 2.82774 7.08929 2.60839 7.16498 2.41527Z" fill="#3D3D3B"/>
<path fill-rule="evenodd" clip-rule="evenodd" d="M7.38151 14.1234C7.38151 14.5679 7.56642 14.9827 7.86071 15.277C8.155 15.5713 8.56982 15.7562 9.01432 15.7562C9.91113 15.7562 10.6471 15.0202 10.6471 14.1234H11.7357C11.7357 15.6214 10.5123 16.8447 9.01432 16.8447C8.26869 16.8447 7.58046 16.5362 7.09099 16.0467C6.60153 15.5573 6.29297 14.869 6.29297 14.1234H7.38151Z" fill="#3D3D3B"/>
</svg>
