<svg width="13" height="17" viewBox="0 0 13 17" fill="none" xmlns="http://www.w3.org/2000/svg">
<path d="M12.4583 2.78571H9.20833V1.92857C9.20833 1.54969 9.06566 1.18633 8.81171 0.918419C8.55775 0.65051 8.21331 0.5 7.85417 0.5H5.14583C4.78669 0.5 4.44225 0.65051 4.18829 0.918419C3.93434 1.18633 3.79167 1.54969 3.79167 1.92857V2.78571H0.541667C0.398008 2.78571 0.260233 2.84592 0.158651 2.95308C0.0570684 3.06025 0 3.20559 0 3.35714C0 3.5087 0.0570684 3.65404 0.158651 3.7612C0.260233 3.86837 0.398008 3.92857 0.541667 3.92857H1.11719L1.76042 14.8186C1.80849 15.7775 2.50521 16.5 3.38542 16.5H9.61458C10.4992 16.5 11.182 15.7936 11.2396 14.8214L11.8828 3.92857H12.4583C12.602 3.92857 12.7398 3.86837 12.8414 3.7612C12.9429 3.65404 13 3.5087 13 3.35714C13 3.20559 12.9429 3.06025 12.8414 2.95308C12.7398 2.84592 12.602 2.78571 12.4583 2.78571ZM4.35263 14.2143H4.33333C4.19296 14.2144 4.05803 14.157 3.95698 14.0542C3.85594 13.9514 3.79667 13.8112 3.79167 13.6632L3.52083 5.66321C3.51572 5.51166 3.56788 5.36417 3.66584 5.25319C3.7638 5.14221 3.89954 5.07683 4.0432 5.07143C4.18686 5.06603 4.32667 5.12106 4.43187 5.2244C4.53707 5.32775 4.59905 5.47095 4.60417 5.6225L4.875 13.6225C4.87758 13.6976 4.86611 13.7724 4.84125 13.8428C4.81638 13.9132 4.77861 13.9777 4.7301 14.0326C4.68158 14.0876 4.62327 14.1319 4.55851 14.1631C4.49374 14.1943 4.42378 14.2117 4.35263 14.2143ZM7.04167 13.6429C7.04167 13.7944 6.9846 13.9398 6.88302 14.0469C6.78143 14.1541 6.64366 14.2143 6.5 14.2143C6.35634 14.2143 6.21857 14.1541 6.11698 14.0469C6.0154 13.9398 5.95833 13.7944 5.95833 13.6429V5.64286C5.95833 5.4913 6.0154 5.34596 6.11698 5.2388C6.21857 5.13163 6.35634 5.07143 6.5 5.07143C6.64366 5.07143 6.78143 5.13163 6.88302 5.2388C6.9846 5.34596 7.04167 5.4913 7.04167 5.64286V13.6429ZM8.125 2.78571H4.875V1.92857C4.87459 1.89093 4.88132 1.85358 4.89478 1.81873C4.90825 1.78387 4.92818 1.7522 4.95342 1.72558C4.97865 1.69896 5.00867 1.67793 5.04171 1.66373C5.07475 1.64952 5.11015 1.64243 5.14583 1.64286H7.85417C7.88985 1.64243 7.92525 1.64952 7.95829 1.66373C7.99133 1.67793 8.02135 1.69896 8.04659 1.72558C8.07182 1.7522 8.09175 1.78387 8.10522 1.81873C8.11868 1.85358 8.12541 1.89093 8.125 1.92857V2.78571ZM9.20833 13.6632C9.20333 13.8112 9.14406 13.9514 9.04302 14.0542C8.94197 14.157 8.80704 14.2144 8.66667 14.2143H8.64703C8.57591 14.2116 8.50599 14.1942 8.44126 14.163C8.37653 14.1318 8.31826 14.0875 8.26978 14.0325C8.2213 13.9775 8.18356 13.913 8.15872 13.8427C8.13388 13.7723 8.12242 13.6975 8.125 13.6225L8.39583 5.6225C8.39837 5.54746 8.41489 5.47368 8.44445 5.40537C8.47401 5.33707 8.51604 5.27557 8.56813 5.2244C8.62022 5.17323 8.68135 5.13338 8.74804 5.10714C8.81473 5.08089 8.88566 5.06876 8.9568 5.07143C9.02793 5.0741 9.09787 5.09153 9.16261 5.12272C9.22736 5.1539 9.28566 5.19824 9.33416 5.25319C9.38267 5.30814 9.42044 5.37264 9.44532 5.44299C9.4702 5.51334 9.4817 5.58817 9.47917 5.66321L9.20833 13.6632Z" fill="#B7081B"/>
</svg>
