<svg width="21" height="20" viewBox="0 0 21 20" fill="none" xmlns="http://www.w3.org/2000/svg">
<path fill-rule="evenodd" clip-rule="evenodd" d="M1.67571 5.24913C2.48734 4.28419 3.87885 3.8125 5.91663 3.8125H15.0833C17.1211 3.8125 18.5126 4.28419 19.3242 5.24913C20.128 6.20469 20.2044 7.46006 20.0756 8.63061L19.3878 15.9674C19.2868 16.9098 19.0502 17.943 18.2088 18.7117C17.3736 19.4748 16.0796 19.8542 14.1666 19.8542H6.8333C4.92035 19.8542 3.62637 19.4748 2.79116 18.7117C1.94972 17.943 1.71319 16.9098 1.61221 15.9674L1.61124 15.9583L0.92433 8.63063C0.795512 7.46008 0.87196 6.2047 1.67571 5.24913ZM2.72797 6.13421C2.29556 6.6483 2.17384 7.42076 2.29163 8.48522L2.2929 8.49665L2.97987 15.8254C3.07158 16.6773 3.26143 17.279 3.71857 17.6966C4.18273 18.1206 5.06125 18.4792 6.8333 18.4792H14.1666C15.9387 18.4792 16.8172 18.1206 17.2814 17.6966C17.7385 17.279 17.9284 16.6773 18.0201 15.8254L18.7082 8.48521C18.826 7.42075 18.7044 6.6483 18.272 6.13421C17.8461 5.62789 16.9597 5.1875 15.0833 5.1875H5.91663C4.04025 5.1875 3.15385 5.62789 2.72797 6.13421Z" fill="white"/>
<path fill-rule="evenodd" clip-rule="evenodd" d="M7.5608 2.71285C7.52186 3.01112 7.52075 3.35008 7.52075 3.76667V4.5C7.52075 4.8797 7.21295 5.1875 6.83325 5.1875C6.45356 5.1875 6.14575 4.8797 6.14575 4.5L6.14575 3.74284C6.14573 3.35461 6.14571 2.93056 6.19737 2.53484C6.25091 2.12481 6.36562 1.68951 6.63436 1.30068C7.19969 0.482703 8.2353 0.145836 9.76659 0.145836H11.2333C12.7645 0.145836 13.8001 0.482703 14.3655 1.30068C14.6342 1.68951 14.7489 2.12481 14.8025 2.53484C14.8541 2.93057 14.8541 3.35462 14.8541 3.74285L14.8541 4.5C14.8541 4.8797 14.5463 5.1875 14.1666 5.1875C13.7869 5.1875 13.4791 4.8797 13.4791 4.5V3.76667C13.4791 3.35008 13.478 3.01112 13.439 2.71285C13.4009 2.42076 13.3323 2.22414 13.2344 2.08245C13.0664 1.83939 12.6353 1.52084 11.2333 1.52084H9.76659C8.36454 1.52084 7.93348 1.83939 7.76549 2.08245C7.66756 2.22414 7.59894 2.42076 7.5608 2.71285Z" fill="white"/>
<path fill-rule="evenodd" clip-rule="evenodd" d="M9.35474 10.6882C9.35403 10.7537 9.35401 10.8283 9.35401 10.9167V11.8608C9.35401 12.1189 9.35626 12.3087 9.37867 12.4698C9.40023 12.6246 9.43445 12.7 9.46346 12.7409C9.4958 12.7865 9.65703 12.9792 10.4998 12.9792C11.3465 12.9792 11.5058 12.7847 11.5374 12.7395C11.5666 12.6978 11.6008 12.6213 11.622 12.4646C11.644 12.3017 11.6457 12.111 11.6457 11.8517V10.9167C11.6457 10.8283 11.6457 10.7537 11.645 10.6882C11.5795 10.6875 11.5049 10.6875 11.4165 10.6875H9.58318C9.49477 10.6875 9.42018 10.6875 9.35474 10.6882ZM9.55307 9.3125C9.56311 9.3125 9.57315 9.3125 9.58318 9.3125H11.4165C11.4265 9.3125 11.4366 9.3125 11.4466 9.3125C11.6493 9.31245 11.8548 9.3124 12.0224 9.33103C12.1932 9.35001 12.4771 9.40078 12.7047 9.62845C12.9324 9.85612 12.9832 10.1399 13.0022 10.3108C13.0208 10.4784 13.0207 10.6838 13.0207 10.8866C13.0207 10.8966 13.0207 10.9066 13.0207 10.9167V11.862C13.0207 12.1 13.0207 12.3817 12.9845 12.649C12.947 12.9263 12.8648 13.241 12.6637 13.5282C12.2347 14.1407 11.4774 14.3542 10.4998 14.3542C9.52766 14.3542 8.77222 14.1435 8.34165 13.536C8.1392 13.2504 8.0554 12.9367 8.0168 12.6593C7.97905 12.3881 7.97901 12.1024 7.97901 11.8608V10.9167C7.97901 10.9066 7.97901 10.8966 7.97901 10.8866C7.97896 10.6838 7.97892 10.4784 7.99754 10.3108C8.01653 10.1399 8.06729 9.85612 8.29496 9.62845C8.52263 9.40078 8.80645 9.35001 8.97731 9.33103C9.14493 9.3124 9.35036 9.31245 9.55307 9.3125Z" fill="white"/>
<path fill-rule="evenodd" clip-rule="evenodd" d="M19.9018 8.67897C20.1252 8.98604 20.0573 9.41602 19.7502 9.63934C17.5354 11.2501 15.005 12.2082 12.4192 12.5338C12.0425 12.5812 11.6987 12.3143 11.6512 11.9376C11.6038 11.5608 11.8707 11.217 12.2474 11.1696C14.6117 10.8718 16.9213 9.99657 18.9415 8.52733C19.2485 8.30401 19.6785 8.3719 19.9018 8.67897Z" fill="white"/>
<path fill-rule="evenodd" clip-rule="evenodd" d="M1.33434 8.94253C1.5488 8.6292 1.97666 8.54904 2.28999 8.7635C4.25981 10.1117 6.48111 10.9243 8.74318 11.1776C9.12052 11.2199 9.39216 11.56 9.34991 11.9373C9.30766 12.3147 8.96751 12.5863 8.59018 12.5441C6.10391 12.2657 3.66855 11.3733 1.51337 9.89817C1.20003 9.68372 1.11988 9.25586 1.33434 8.94253Z" fill="white"/>
</svg>
