<svg width="16" height="16" viewBox="0 0 16 16" fill="none" xmlns="http://www.w3.org/2000/svg">
<path d="M9.18645 7.94504C9.59781 7.94504 9.93129 7.61156 9.93129 7.2002C9.93129 6.78883 9.59781 6.45535 9.18645 6.45535C8.77508 6.45535 8.4416 6.78883 8.4416 7.2002C8.4416 7.61156 8.77508 7.94504 9.18645 7.94504Z" fill="white"/>
<path d="M11.6693 7.94504C12.0806 7.94504 12.4141 7.61156 12.4141 7.2002C12.4141 6.78883 12.0806 6.45535 11.6693 6.45535C11.2579 6.45535 10.9244 6.78883 10.9244 7.2002C10.9244 7.61156 11.2579 7.94504 11.6693 7.94504Z" fill="white"/>
<path d="M9.18645 10.4279C9.59781 10.4279 9.93129 10.0944 9.93129 9.68301C9.93129 9.27164 9.59781 8.93816 9.18645 8.93816C8.77508 8.93816 8.4416 9.27164 8.4416 9.68301C8.4416 10.0944 8.77508 10.4279 9.18645 10.4279Z" fill="white"/>
<path d="M11.6693 10.4279C12.0806 10.4279 12.4141 10.0944 12.4141 9.68301C12.4141 9.27164 12.0806 8.93816 11.6693 8.93816C11.2579 8.93816 10.9244 9.27164 10.9244 9.68301C10.9244 10.0944 11.2579 10.4279 11.6693 10.4279Z" fill="white"/>
<path d="M4.22082 10.4279C4.63219 10.4279 4.96566 10.0944 4.96566 9.68301C4.96566 9.27164 4.63219 8.93816 4.22082 8.93816C3.80945 8.93816 3.47598 9.27164 3.47598 9.68301C3.47598 10.0944 3.80945 10.4279 4.22082 10.4279Z" fill="white"/>
<path d="M6.70363 10.4279C7.115 10.4279 7.44848 10.0944 7.44848 9.68301C7.44848 9.27164 7.115 8.93816 6.70363 8.93816C6.29227 8.93816 5.95879 9.27164 5.95879 9.68301C5.95879 10.0944 6.29227 10.4279 6.70363 10.4279Z" fill="white"/>
<path d="M4.22082 12.9107C4.63219 12.9107 4.96566 12.5772 4.96566 12.1658C4.96566 11.7545 4.63219 11.421 4.22082 11.421C3.80945 11.421 3.47598 11.7545 3.47598 12.1658C3.47598 12.5772 3.80945 12.9107 4.22082 12.9107Z" fill="white"/>
<path d="M6.70363 12.9107C7.115 12.9107 7.44848 12.5772 7.44848 12.1658C7.44848 11.7545 7.115 11.421 6.70363 11.421C6.29227 11.421 5.95879 11.7545 5.95879 12.1658C5.95879 12.5772 6.29227 12.9107 6.70363 12.9107Z" fill="white"/>
<path d="M9.18645 12.9107C9.59781 12.9107 9.93129 12.5772 9.93129 12.1658C9.93129 11.7545 9.59781 11.421 9.18645 11.421C8.77508 11.421 8.4416 11.7545 8.4416 12.1658C8.4416 12.5772 8.77508 12.9107 9.18645 12.9107Z" fill="white"/>
<path fill-rule="evenodd" clip-rule="evenodd" d="M4.4691 1.48973C4.4691 1.21548 4.24678 0.993164 3.97254 0.993164C3.6983 0.993164 3.47598 1.21548 3.47598 1.48973V1.98629H2.97941C1.88244 1.98629 0.993164 2.87556 0.993164 3.97254V12.9107C0.993164 14.0076 1.88244 14.8969 2.97941 14.8969H12.9107C14.0076 14.8969 14.8969 14.0076 14.8969 12.9107V3.97254C14.8969 2.87556 14.0076 1.98629 12.9107 1.98629H12.4141V1.48973C12.4141 1.21548 12.1918 0.993164 11.9175 0.993164C11.6433 0.993164 11.421 1.21548 11.421 1.48973V1.98629H4.4691V1.48973ZM12.9107 2.97941C13.4592 2.97941 13.9038 3.42405 13.9038 3.97254V4.4691H1.98629V3.97254C1.98629 3.42405 2.43093 2.97941 2.97941 2.97941H12.9107ZM1.98629 5.46223V12.9107C1.98629 13.4592 2.43093 13.9038 2.97941 13.9038H12.9107C13.4592 13.9038 13.9038 13.4592 13.9038 12.9107V5.46223H1.98629Z" fill="white"/>
</svg>
