<svg width="22" height="22" viewBox="0 0 22 22" fill="none" xmlns="http://www.w3.org/2000/svg">
<path fill-rule="evenodd" clip-rule="evenodd" d="M4.46679 2.0625L4.46875 2.0625H17.5312V2.75L17.5332 2.0625C18.3525 2.06483 19.1375 2.39132 19.7169 2.97064C20.2962 3.54996 20.6227 4.33502 20.625 5.15429L20.625 5.15625V13.4062L20.625 13.4082C20.6227 14.2275 20.2962 15.0125 19.7169 15.5919C19.1375 16.1712 18.3525 16.4977 17.5332 16.5L17.5312 16.5H10.5594L6.62776 19.778C6.42285 19.9489 6.13759 19.9858 5.89597 19.8726C5.65435 19.7595 5.5 19.5168 5.5 19.25V16.5H4.46875L4.46679 16.5C3.64752 16.4977 2.86246 16.1712 2.28314 15.5919C1.70382 15.0125 1.37733 14.2275 1.375 13.4082L1.375 13.4062V5.15625L1.375 5.15429C1.37733 4.33502 1.70382 3.54996 2.28314 2.97064C2.86246 2.39132 3.64752 2.06483 4.46679 2.0625ZM10.6553 16.4201C10.6551 16.4202 10.6549 16.4203 10.6548 16.4205L10.6553 16.4201ZM17.5302 3.4375H4.46981C4.01417 3.43903 3.57762 3.62071 3.25541 3.94291C2.93321 4.26512 2.75153 4.70167 2.75 5.15731V13.4052C2.75153 13.8608 2.93321 14.2974 3.25541 14.6196C3.57763 14.9418 4.0142 15.1235 4.46986 15.125H6.1875C6.5672 15.125 6.875 15.4328 6.875 15.8125V17.7817L9.77381 15.3648C9.77396 15.3646 9.77412 15.3645 9.77427 15.3644C9.95968 15.2097 10.1935 15.125 10.435 15.125C10.435 15.125 10.4351 15.125 10.4351 15.125H17.5301C17.9858 15.1235 18.4224 14.9418 18.7446 14.6196C19.0668 14.2974 19.2485 13.8608 19.25 13.4051V5.15736C19.2485 4.7017 19.0668 4.26513 18.7446 3.94291C18.4224 3.62071 17.9858 3.43903 17.5302 3.4375Z" fill="#373737"/>
<circle cx="19" cy="3" r="3" fill="#05AC92"/>
</svg>
