<svg width="21" height="20" viewBox="0 0 21 20" fill="none" xmlns="http://www.w3.org/2000/svg">
<path fill-rule="evenodd" clip-rule="evenodd" d="M10.4999 1.52084C5.81961 1.52084 2.02075 5.3197 2.02075 10C2.02075 14.6803 5.81961 18.4792 10.4999 18.4792C15.1802 18.4792 18.9791 14.6803 18.9791 10C18.9791 5.3197 15.1802 1.52084 10.4999 1.52084ZM0.645752 10C0.645752 4.56031 5.06022 0.145836 10.4999 0.145836C15.9396 0.145836 20.3541 4.56031 20.3541 10C20.3541 15.4397 15.9396 19.8542 10.4999 19.8542C5.06022 19.8542 0.645752 15.4397 0.645752 10Z" fill="#F1F1F1"/>
<path fill-rule="evenodd" clip-rule="evenodd" d="M10.1606 5.19667C10.5403 5.19667 10.8481 5.50447 10.8481 5.88417V9.6425C10.8481 9.78325 10.9019 9.98726 11.0214 10.1968C11.1409 10.4064 11.2891 10.5564 11.4095 10.6277L11.4113 10.6288L11.4113 10.6288L14.253 12.3246C14.579 12.5192 14.6856 12.9413 14.491 13.2673C14.2964 13.5934 13.8744 13.6999 13.5483 13.5054L10.7085 11.8106C10.7082 11.8104 10.7079 11.8102 10.7075 11.8101C10.3334 11.588 10.0327 11.2387 9.82697 10.878C9.62106 10.5169 9.47314 10.0793 9.47314 9.6425V5.88417C9.47314 5.50447 9.78095 5.19667 10.1606 5.19667Z" fill="#F1F1F1"/>
</svg>
