<svg width="14" height="11" viewBox="0 0 14 11" fill="none" xmlns="http://www.w3.org/2000/svg">
<path fill-rule="evenodd" clip-rule="evenodd" d="M1.73837 0.993354C1.32691 0.993354 0.993354 1.32691 0.993354 1.73837V9.18853C0.993354 9.59999 1.32691 9.93354 1.73837 9.93354H12.1686C12.5801 9.93354 12.9136 9.59999 12.9136 9.18853V1.73837C12.9136 1.32691 12.5801 0.993354 12.1686 0.993354H1.73837ZM0 1.73837C0 0.778295 0.778295 0 1.73837 0H12.1686C13.1287 0 13.907 0.778295 13.907 1.73837V9.18853C13.907 10.1486 13.1287 10.9269 12.1686 10.9269H1.73837C0.778295 10.9269 0 10.1486 0 9.18853V1.73837Z" fill="white"/>
<path fill-rule="evenodd" clip-rule="evenodd" d="M2.09133 2.17846C2.25974 1.96193 2.57179 1.92292 2.78832 2.09133L6.95348 5.33091L11.1186 2.09133C11.3352 1.92292 11.6472 1.96193 11.8156 2.17846C11.984 2.39498 11.945 2.70703 11.7285 2.87544L7.25841 6.35218C7.07906 6.49168 6.82791 6.49168 6.64855 6.35218L2.17846 2.87544C1.96193 2.70703 1.92292 2.39498 2.09133 2.17846Z" fill="white"/>
</svg>
