<svg width="18" height="18" viewBox="0 0 18 18" fill="none" xmlns="http://www.w3.org/2000/svg">
<path fill-rule="evenodd" clip-rule="evenodd" d="M5.25228 4.48685C5.04098 4.27554 4.69839 4.27554 4.48709 4.48685C4.27579 4.69815 4.27579 5.04073 4.48709 5.25204L7.89199 8.65694L4.48709 12.0618C4.27579 12.2731 4.27579 12.6157 4.48709 12.827C4.69839 13.0383 5.04098 13.0383 5.25228 12.827L8.65718 9.42213L12.0621 12.827C12.2734 13.0383 12.616 13.0383 12.8273 12.827C13.0386 12.6157 13.0386 12.2731 12.8273 12.0618L9.42237 8.65694L12.8273 5.25204C13.0386 5.04073 13.0386 4.69815 12.8273 4.48685C12.616 4.27554 12.2734 4.27554 12.0621 4.48685L8.65718 7.89175L5.25228 4.48685Z" fill="black"/>
</svg>
