<svg width="18" height="18" viewBox="0 0 18 18" fill="none" xmlns="http://www.w3.org/2000/svg">
<g clip-path="url(#clip0_656_25033)">
<path fill-rule="evenodd" clip-rule="evenodd" d="M2.19557 1.95273C1.2861 1.95273 0.548828 2.69 0.548828 3.59947V12.3821C0.548828 13.2915 1.2861 14.0288 2.19557 14.0288H7.34163L7.2044 15.1266H4.94013C4.63698 15.1266 4.39122 15.3724 4.39122 15.6756C4.39122 15.9787 4.63698 16.2245 4.94013 16.2245H12.6249C12.9281 16.2245 13.1738 15.9787 13.1738 15.6756C13.1738 15.3724 12.9281 15.1266 12.6249 15.1266H10.3607L10.2234 14.0288H15.3695C16.279 14.0288 17.0162 13.2915 17.0162 12.3821V3.59947C17.0162 2.69 16.279 1.95273 15.3695 1.95273H2.19557ZM1.64665 3.59947C1.64665 3.29631 1.89241 3.05055 2.19557 3.05055H15.3695C15.6726 3.05055 15.9184 3.29631 15.9184 3.59947V10.7353H1.64665V3.59947ZM8.78253 12.931C8.92811 12.931 9.06772 12.8732 9.17067 12.7702C9.27361 12.6673 9.33144 12.5277 9.33144 12.3821C9.33144 12.2735 9.29925 12.1674 9.23893 12.0771C9.17861 11.9868 9.09289 11.9165 8.99258 11.8749C8.89228 11.8334 8.78192 11.8225 8.67544 11.8437C8.56896 11.8649 8.47115 11.9172 8.39438 11.9939C8.31762 12.0707 8.26534 12.1685 8.24416 12.275C8.22298 12.3815 8.23385 12.4918 8.2754 12.5921C8.31694 12.6924 8.3873 12.7782 8.47756 12.8385C8.56783 12.8988 8.67396 12.931 8.78253 12.931Z" fill="#373737"/>
</g>
<defs>
<clipPath id="clip0_656_25033">
<rect width="17.5652" height="17.5652" fill="white" transform="translate(0 0.306)"/>
</clipPath>
</defs>
</svg>
