<svg width="22" height="22" viewBox="0 0 22 22" fill="none" xmlns="http://www.w3.org/2000/svg">
<path fill-rule="evenodd" clip-rule="evenodd" d="M6.1875 2.75C5.82283 2.75 5.47309 2.89487 5.21523 3.15273C4.95737 3.41059 4.8125 3.76033 4.8125 4.125V17.875C4.8125 18.2397 4.95737 18.5894 5.21523 18.8473C5.47309 19.1051 5.82283 19.25 6.1875 19.25H15.8125C16.1772 19.25 16.5269 19.1051 16.7848 18.8473C17.0426 18.5894 17.1875 18.2397 17.1875 17.875V9.625H12.375C11.828 9.625 11.3034 9.4077 10.9166 9.02091C10.5298 8.63411 10.3125 8.10951 10.3125 7.5625V2.75H6.1875ZM11.6875 3.72227L16.2152 8.25H12.375C12.1927 8.25 12.0178 8.17757 11.8889 8.04864C11.7599 7.9197 11.6875 7.74484 11.6875 7.5625V3.72227ZM4.24296 2.18046C4.75868 1.66473 5.45815 1.375 6.1875 1.375H10.4308C10.9776 1.37508 11.502 1.59231 11.8887 1.97893L11.8888 1.97898L17.9586 8.0488C18.3452 8.43551 18.5624 8.95991 18.5625 9.50673V17.875C18.5625 18.6043 18.2728 19.3038 17.757 19.8195C17.2413 20.3353 16.5418 20.625 15.8125 20.625H6.1875C5.45815 20.625 4.75868 20.3353 4.24296 19.8195C3.72723 19.3038 3.4375 18.6043 3.4375 17.875V4.125C3.4375 3.39565 3.72723 2.69618 4.24296 2.18046ZM6.875 12.375C6.875 11.9953 7.1828 11.6875 7.5625 11.6875H14.4375C14.8172 11.6875 15.125 11.9953 15.125 12.375C15.125 12.7547 14.8172 13.0625 14.4375 13.0625H7.5625C7.1828 13.0625 6.875 12.7547 6.875 12.375ZM6.875 15.8125C6.875 15.4328 7.1828 15.125 7.5625 15.125H14.4375C14.8172 15.125 15.125 15.4328 15.125 15.8125C15.125 16.1922 14.8172 16.5 14.4375 16.5H7.5625C7.1828 16.5 6.875 16.1922 6.875 15.8125Z" fill="#373737"/>
</svg>
