<svg width="21" height="14" viewBox="0 0 21 14" fill="none" xmlns="http://www.w3.org/2000/svg" aria-hidden="true">
  <path fill-rule="evenodd" clip-rule="evenodd" d="M0.845055 6.40277C3.53133 2.55203 7.01436 0.532837 10.5037 0.532837C14.6019 0.532837 18.132 3.20273 20.2148 6.41963L20.2158 6.42115C20.3536 6.63531 20.4269 6.88461 20.4269 7.1393C20.4269 7.39351 20.3539 7.64237 20.2165 7.85627C18.1356 11.1146 14.6282 13.7445 10.5037 13.7445C6.33535 13.7445 2.89561 11.1201 0.819778 7.87123C0.678727 7.6522 0.605569 7.39635 0.609528 7.13583C0.613496 6.87466 0.694786 6.62053 0.843126 6.40555L0.845055 6.40277ZM1.9305 7.15591L1.93232 7.15875C3.84964 10.1601 6.92266 12.4233 10.5037 12.4233C14.0447 12.4233 17.184 10.1505 19.1036 7.1444L19.1049 7.14242C19.1055 7.14149 19.1058 7.1404 19.1058 7.1393C19.1058 7.13883 19.1057 7.13837 19.1056 7.13792C19.1055 7.13735 19.1052 7.1368 19.1049 7.1363C17.178 4.16089 14.0131 1.854 10.5037 1.854C7.5584 1.854 4.44083 3.5588 1.9305 7.15591ZM10.5178 4.49634C9.05852 4.49634 7.87555 5.67935 7.87555 7.13868C7.87555 8.598 9.05852 9.78101 10.5178 9.78101C11.977 9.78101 13.16 8.598 13.16 7.13868C13.16 5.67935 11.977 4.49634 10.5178 4.49634ZM6.55444 7.13868C6.55444 4.94969 8.32889 3.17517 10.5178 3.17517C12.7067 3.17517 14.4811 4.94969 14.4811 7.13868C14.4811 9.32766 12.7067 11.1022 10.5178 11.1022C8.32889 11.1022 6.55444 9.32766 6.55444 7.13868Z" fill="currentColor"/>
</svg>
