<svg
  width="16"
  height="16"
  viewBox="0 0 16 16"
  fill="currentColor"
  xmlns="http://www.w3.org/2000/svg"
>
  <path
    d="M2.94375 15C1.87187 15 1 14.1281 1 13.0562V2.94375C1 1.87187 1.87187 1 2.94375 1H11.1969C11.5969 1 11.975 1.15625 12.2563 1.44062L14.5594 3.74375C14.8438 4.02813 15 4.40312 15 4.80312V13.0562C14.9969 14.125 14.125 14.9969 13.0562 15H2.94375ZM2.94375 2C2.69062 2 2.45313 2.09688 2.275 2.275C2.09688 2.45313 2 2.69062 2 2.94375V13.0562C2 13.5781 2.42187 14 2.94375 14H13.0562C13.575 14 14 13.575 14 13.0531V4.80312C14 4.66875 13.9469 4.54375 13.8531 4.45L11.55 2.14687C11.4563 2.05312 11.3313 2 11.1969 2H2.94375ZM8.00625 13.5H8C6.62188 13.5 5.5 12.3781 5.5 11C5.5 9.62188 6.62188 8.5 8 8.5C9.37813 8.5 10.5 9.62188 10.5 11C10.5 11.6656 10.2406 12.2938 9.77188 12.7656C9.3 13.2375 8.67188 13.5 8.00625 13.5ZM8 9.5C7.17188 9.5 6.5 10.1719 6.5 11C6.5 11.8281 7.17188 12.5 8 12.5H8.00625C8.40625 12.5 8.78125 12.3438 9.0625 12.0594C9.34375 11.775 9.5 11.4 9.5 11C9.5 10.1719 8.82812 9.5 8 9.5ZM9.5 6.5H3.5C2.95 6.5 2.5 6.05 2.5 5.5V3.5C2.5 2.95 2.95 2.5 3.5 2.5H9.5C10.05 2.5 10.5 2.95 10.5 3.5V5.5C10.5 6.05 10.05 6.5 9.5 6.5ZM3.5 3.5V5.5H9.5V3.5H3.5Z"
    fill="currentColor"
  />
</svg>