<svg width="16" height="17" viewBox="0 0 16 17" fill="none" xmlns="http://www.w3.org/2000/svg">
<path d="M7.99953 10C8.82795 10 9.49953 9.32843 9.49953 8.5C9.49953 7.67157 8.82795 7 7.99953 7C7.1711 7 6.49953 7.67157 6.49953 8.5C6.49953 9.32843 7.1711 10 7.99953 10Z" fill="#1E73BE"/>
<path d="M14.6992 9.875L14.6845 9.86312L13.6983 9.08969C13.6358 9.04028 13.586 8.97676 13.5528 8.90434C13.5197 8.83193 13.5042 8.75269 13.5077 8.67313V8.31187C13.5045 8.23282 13.5202 8.15415 13.5534 8.08233C13.5866 8.01051 13.6363 7.94759 13.6986 7.89875L14.6845 7.125L14.6992 7.11312C14.8513 6.98646 14.9533 6.80983 14.9871 6.61483C15.0209 6.41984 14.9842 6.21918 14.8836 6.04875L13.5489 3.73938C13.5474 3.7372 13.546 3.7349 13.5448 3.7325C13.4437 3.56443 13.2869 3.43708 13.1017 3.37257C12.9164 3.30806 12.7144 3.31047 12.5308 3.37937L12.5198 3.38344L11.3605 3.85C11.2873 3.87959 11.2081 3.89136 11.1295 3.88435C11.0509 3.87734 10.9751 3.85175 10.9083 3.80969C10.8058 3.7451 10.7016 3.68406 10.5958 3.62656C10.5272 3.58935 10.4682 3.53654 10.4238 3.47238C10.3793 3.40821 10.3506 3.3345 10.3398 3.25719L10.1652 2.02L10.1614 1.9975C10.1234 1.80587 10.0205 1.63318 9.87019 1.50844C9.71984 1.38369 9.53113 1.3145 9.33578 1.3125H6.66328C6.46517 1.31313 6.27364 1.38366 6.12244 1.51166C5.97123 1.63965 5.87005 1.81691 5.83671 2.01219L5.8339 2.02969L5.65984 3.26938C5.64916 3.34647 5.62063 3.42001 5.57653 3.48413C5.53242 3.54826 5.47395 3.6012 5.40578 3.63875C5.2989 3.69625 5.19453 3.75719 5.09328 3.82063C5.02661 3.86243 4.95097 3.88783 4.87258 3.89473C4.79419 3.90163 4.71529 3.88983 4.64234 3.86031L3.48203 3.39156L3.47109 3.38719C3.28717 3.31821 3.08489 3.31589 2.89944 3.38064C2.71399 3.44539 2.55711 3.5731 2.45609 3.74156L2.45203 3.74844L1.11546 6.05937C1.01472 6.22998 0.977955 6.43086 1.01173 6.62609C1.04551 6.82131 1.14763 6.99816 1.29984 7.125L1.31453 7.13688L2.30078 7.91031C2.36323 7.95972 2.41308 8.02324 2.44622 8.09566C2.47935 8.16807 2.49484 8.24731 2.4914 8.32688V8.68812C2.49453 8.76718 2.47886 8.84585 2.44566 8.91767C2.41247 8.98949 2.36271 9.05241 2.30046 9.10125L1.31453 9.875L1.29984 9.88688C1.14779 10.0135 1.04575 10.1902 1.01197 10.3852C0.978189 10.5802 1.01487 10.7808 1.11546 10.9513L2.45015 13.2606C2.45169 13.2628 2.45305 13.2651 2.45421 13.2675C2.55535 13.4356 2.71215 13.5629 2.89739 13.6274C3.08264 13.6919 3.28462 13.6895 3.46828 13.6206L3.47921 13.6166L4.63765 13.15C4.71083 13.1204 4.78999 13.1086 4.86861 13.1156C4.94722 13.1227 5.02305 13.1482 5.08984 13.1903C5.19234 13.2551 5.29651 13.3161 5.40234 13.3734C5.47096 13.4106 5.52987 13.4635 5.57433 13.5276C5.61878 13.5918 5.64754 13.6655 5.65828 13.7428L5.83203 14.98L5.83578 15.0025C5.87387 15.1944 5.97698 15.3674 6.12772 15.4922C6.27845 15.6169 6.4676 15.6859 6.66328 15.6875H9.33578C9.53388 15.6869 9.72541 15.6163 9.87661 15.4883C10.0278 15.3603 10.129 15.1831 10.1623 14.9878L10.1652 14.9703L10.3392 13.7306C10.3501 13.6534 10.3788 13.5798 10.4232 13.5156C10.4676 13.4515 10.5264 13.3986 10.5948 13.3612C10.7017 13.3038 10.8061 13.2428 10.9073 13.1794C10.974 13.1376 11.0496 13.1122 11.128 13.1053C11.2064 13.0984 11.2853 13.1102 11.3583 13.1397L12.5186 13.6069L12.5295 13.6112C12.7134 13.6804 12.9158 13.6827 13.1012 13.618C13.2867 13.5532 13.4436 13.4254 13.5445 13.2569C13.5458 13.2545 13.5471 13.2522 13.5486 13.25L14.8833 10.9409C14.9842 10.7704 15.0211 10.5694 14.9874 10.3741C14.9537 10.1788 14.8515 10.0019 14.6992 9.875ZM10.4967 8.6175C10.474 9.10143 10.3111 9.56832 10.0279 9.9614C9.74471 10.3545 9.35341 10.6568 8.90159 10.8316C8.44976 11.0064 7.95688 11.0462 7.48287 10.9461C7.00886 10.846 6.57415 10.6103 6.2316 10.2677C5.88905 9.92514 5.65343 9.4904 5.55337 9.01638C5.45332 8.54236 5.49315 8.04948 5.66802 7.59768C5.84289 7.14587 6.14527 6.75461 6.53838 6.47147C6.93149 6.18833 7.39841 6.02551 7.88234 6.00281C8.22976 5.98752 8.57657 6.04468 8.90071 6.17067C9.22484 6.29667 9.51921 6.48873 9.7651 6.73465C10.011 6.98057 10.203 7.27496 10.329 7.59911C10.4549 7.92326 10.5121 8.27008 10.4967 8.6175Z" fill="#1E73BE"/>
</svg>
