<svg width="22" height="22" viewBox="0 0 22 22" fill="none" xmlns="http://www.w3.org/2000/svg">
<path fill-rule="evenodd" clip-rule="evenodd" d="M2.0625 11C2.0625 6.06562 6.06562 2.0625 11 2.0625C15.9344 2.0625 19.9375 6.06562 19.9375 11C19.9375 15.9344 15.9344 19.9375 11 19.9375C6.06562 19.9375 2.0625 15.9344 2.0625 11ZM11 3.4375C6.82501 3.4375 3.4375 6.82501 3.4375 11C3.4375 15.175 6.82501 18.5625 11 18.5625C15.175 18.5625 18.5625 15.175 18.5625 11C18.5625 6.82501 15.175 3.4375 11 3.4375Z" fill="currentColor"/>
<path fill-rule="evenodd" clip-rule="evenodd" d="M10.9909 6.18968C11.1179 6.18847 11.2437 6.21314 11.3608 6.26219C11.4779 6.31127 11.5838 6.38372 11.672 6.47511C11.7602 6.5665 11.8288 6.67492 11.8737 6.79373C11.9186 6.91254 11.9388 7.03925 11.933 7.16613L11.6867 12.4073C11.6695 12.774 11.3672 13.0625 11 13.0625C10.6329 13.0625 10.3305 12.7741 10.3133 12.4073L10.0666 7.16613C10.0609 7.04076 10.0805 6.91553 10.1243 6.79792C10.1681 6.68031 10.2351 6.57272 10.3214 6.48158C10.4076 6.39044 10.5114 6.31762 10.6264 6.26747C10.7414 6.21734 10.8653 6.19089 10.9907 6.18968" fill="currentColor"/>
<path d="M11 15.8086C10.83 15.8086 10.6639 15.7582 10.5226 15.6638C10.3812 15.5694 10.2711 15.4352 10.206 15.2781C10.141 15.1211 10.124 14.9483 10.1571 14.7816C10.1903 14.6149 10.2721 14.4618 10.3923 14.3416C10.5125 14.2214 10.6656 14.1396 10.8323 14.1064C10.999 14.0732 11.1718 14.0903 11.3289 14.1553C11.4859 14.2203 11.6201 14.3305 11.7145 14.4718C11.809 14.6131 11.8594 14.7793 11.8594 14.9493C11.8594 15.1772 11.7688 15.3958 11.6077 15.5569C11.4465 15.7181 11.2279 15.8086 11 15.8086Z" fill="currentColor"/>
</svg>
