<svg width="16" height="16" viewBox="0 0 16 16" fill="none" xmlns="http://www.w3.org/2000/svg">
<path d="M10.8438 2.15197C11.6116 2.15427 12.3472 2.46027 12.8901 3.00316C13.433 3.54605 13.739 4.28171 13.7413 5.04946V10.8438C13.739 11.6116 13.433 12.3472 12.8901 12.8901C12.3472 13.433 11.6116 13.739 10.8438 13.7413H5.04946C4.28171 13.739 3.54605 13.433 3.00316 12.8901C2.46027 12.3472 2.15427 11.6116 2.15197 10.8438V5.04946C2.15427 4.28171 2.46027 3.54605 3.00316 3.00316C3.54605 2.46027 4.28171 2.15427 5.04946 2.15197H10.8438ZM10.8438 0.993164H5.04946C2.81845 0.993164 0.993164 2.81845 0.993164 5.04946V10.8438C0.993164 13.0748 2.81845 14.9001 5.04946 14.9001H10.8438C13.0748 14.9001 14.9001 13.0748 14.9001 10.8438V5.04946C14.9001 2.81845 13.0748 0.993164 10.8438 0.993164Z" fill="white"/>
<path d="M11.713 5.04946C11.5411 5.04946 11.3731 4.99849 11.2301 4.90298C11.0872 4.80747 10.9758 4.67172 10.91 4.5129C10.8442 4.35408 10.827 4.17932 10.8605 4.01071C10.8941 3.8421 10.9768 3.68723 11.0984 3.56567C11.22 3.44411 11.3748 3.36133 11.5434 3.3278C11.712 3.29426 11.8868 3.31147 12.0456 3.37726C12.2045 3.44304 12.3402 3.55445 12.4357 3.69739C12.5312 3.84032 12.5822 4.00837 12.5822 4.18028C12.5824 4.29449 12.5601 4.40763 12.5165 4.51319C12.4729 4.61876 12.4089 4.71467 12.3282 4.79543C12.2474 4.87619 12.1515 4.94021 12.0459 4.9838C11.9404 5.0274 11.8272 5.04971 11.713 5.04946Z" fill="white"/>
<path d="M7.94664 5.62871C8.40509 5.62871 8.85324 5.76466 9.23442 6.01936C9.6156 6.27405 9.91269 6.63606 10.0881 7.05961C10.2636 7.48316 10.3095 7.94922 10.22 8.39885C10.1306 8.84848 9.90984 9.2615 9.58567 9.58567C9.2615 9.90984 8.84848 10.1306 8.39885 10.22C7.94922 10.3095 7.48316 10.2636 7.05961 10.0881C6.63606 9.91269 6.27405 9.6156 6.01936 9.23442C5.76466 8.85324 5.62871 8.40509 5.62871 7.94664C5.62937 7.33209 5.87379 6.7429 6.30835 6.30835C6.7429 5.87379 7.33209 5.62937 7.94664 5.62871ZM7.94664 4.4699C7.25901 4.4699 6.58682 4.67381 6.01507 5.05584C5.44332 5.43787 4.9977 5.98086 4.73456 6.61615C4.47141 7.25144 4.40256 7.9505 4.53671 8.62492C4.67086 9.29935 5.00199 9.91884 5.48822 10.4051C5.97445 10.8913 6.59394 11.2224 7.26837 11.3566C7.94279 11.4907 8.64184 11.4219 9.27713 11.1587C9.91243 10.8956 10.4554 10.45 10.8374 9.87822C11.2195 9.30647 11.4234 8.63428 11.4234 7.94664C11.4234 7.02456 11.0571 6.14023 10.4051 5.48822C9.75306 4.8362 8.86873 4.4699 7.94664 4.4699Z" fill="white"/>
</svg>
