<svg width="20" height="20" viewBox="0 0 20 20" fill="none" xmlns="http://www.w3.org/2000/svg">
<path d="M14.4165 2.82676C13.3032 1.70977 11.8077 1.09375 10.2083 1.09375C10.2008 1.09375 10.1971 1.09375 10.1897 1.09375C6.93521 1.09375 4.27817 3.73965 4.27075 6.99785V7.03125C4.27075 8.76055 4.93501 10.3785 6.08911 11.4695C6.14106 11.5178 6.19673 11.5697 6.25239 11.6217C6.92036 12.2451 7.83325 13.1023 7.83325 13.8594V14.75C7.83325 15.0766 8.10044 15.3438 8.427 15.3438C8.75356 15.3438 9.02075 15.0766 9.02075 14.75V13.8594C9.02075 12.5902 7.88892 11.5289 7.06138 10.757C7.00571 10.7051 6.95376 10.6568 6.90181 10.6086C5.98149 9.74023 5.45454 8.4377 5.45454 7.03125V7.00527C5.46567 4.39648 7.58833 2.28125 10.1934 2.28125C10.1971 2.28125 10.2008 2.28125 10.2083 2.28125C12.8727 2.28125 14.9583 4.3668 14.9583 7.03125C14.9583 8.46738 14.4573 9.70312 13.5073 10.6086C13.4479 10.6643 13.3885 10.7199 13.3254 10.7793C12.509 11.5512 11.392 12.6088 11.392 13.8557V14.7463C11.392 15.0729 11.6592 15.34 11.9858 15.34C12.3124 15.34 12.5795 15.0729 12.5795 14.7463V13.8557C12.5795 13.1172 13.4813 12.2637 14.1418 11.6402C14.2049 11.5809 14.268 11.5215 14.3274 11.4658C15.5149 10.3303 16.142 8.79395 16.142 7.02754C16.1458 5.43555 15.5334 3.94375 14.4165 2.82676Z" fill="#373737"/>
<path d="M11.3958 17.7188H9.02075C8.69419 17.7188 8.427 17.9859 8.427 18.3125C8.427 18.6391 8.69419 18.9062 9.02075 18.9062H11.3958C11.7223 18.9062 11.9895 18.6391 11.9895 18.3125C11.9895 17.9859 11.7223 17.7188 11.3958 17.7188Z" fill="#373737"/>
<path d="M11.9895 15.9375H8.427C8.10044 15.9375 7.83325 16.2047 7.83325 16.5312C7.83325 16.8578 8.10044 17.125 8.427 17.125H11.9895C12.3161 17.125 12.5833 16.8578 12.5833 16.5312C12.5833 16.2047 12.3161 15.9375 11.9895 15.9375Z" fill="#373737"/>
<path d="M10.2082 15.3438C10.5348 15.3438 10.802 15.0766 10.802 14.75V10.4936C11.3623 10.3191 11.8559 9.97031 11.9709 9.88125C12.2344 9.68457 12.2863 9.31348 12.0934 9.05C11.8967 8.78652 11.5256 8.73086 11.2621 8.92754C11.0024 9.12051 10.4865 9.40625 10.2045 9.40625C9.92619 9.40625 9.40666 9.12051 9.1469 8.93125C8.88342 8.73457 8.51233 8.79023 8.31565 9.05371C8.11897 9.31719 8.17463 9.68828 8.43811 9.88496C8.55686 9.97402 9.0467 10.3229 9.60705 10.4973V14.75C9.61448 15.0766 9.88166 15.3438 10.2082 15.3438Z" fill="#373737"/>
</svg>
