<svg width="25" height="24" viewBox="0 0 25 24" fill="none" xmlns="http://www.w3.org/2000/svg">
<path d="M5.03223 18H16.0322C16.5822 18 17.0322 17.55 17.0322 17C17.0322 16.45 16.5822 16 16.0322 16H5.03223C4.48223 16 4.03223 16.45 4.03223 17C4.03223 17.55 4.48223 18 5.03223 18ZM5.03223 13H13.0322C13.5822 13 14.0322 12.55 14.0322 12C14.0322 11.45 13.5822 11 13.0322 11H5.03223C4.48223 11 4.03223 11.45 4.03223 12C4.03223 12.55 4.48223 13 5.03223 13ZM4.03223 7C4.03223 7.55 4.48223 8 5.03223 8H16.0322C16.5822 8 17.0322 7.55 17.0322 7C17.0322 6.45 16.5822 6 16.0322 6H5.03223C4.48223 6 4.03223 6.45 4.03223 7ZM21.3322 14.88L18.4522 12L21.3322 9.12C21.7222 8.73 21.7222 8.1 21.3322 7.71C20.9422 7.32 20.3122 7.32 19.9222 7.71L16.3322 11.3C15.9422 11.69 15.9422 12.32 16.3322 12.71L19.9222 16.3C20.3122 16.69 20.9422 16.69 21.3322 16.3C21.7122 15.91 21.7222 15.27 21.3322 14.88Z" fill="#B8BFCC"/>
</svg>
