<svg width="18" height="18" viewBox="0 0 18 18" fill="none" xmlns="http://www.w3.org/2000/svg">
<path d="M3.15283 13.5H11.4028C11.8153 13.5 12.1528 13.1625 12.1528 12.75C12.1528 12.3375 11.8153 12 11.4028 12H3.15283C2.74033 12 2.40283 12.3375 2.40283 12.75C2.40283 13.1625 2.74033 13.5 3.15283 13.5ZM3.15283 9.75H9.15283C9.56533 9.75 9.90283 9.4125 9.90283 9C9.90283 8.5875 9.56533 8.25 9.15283 8.25H3.15283C2.74033 8.25 2.40283 8.5875 2.40283 9C2.40283 9.4125 2.74033 9.75 3.15283 9.75ZM2.40283 5.25C2.40283 5.6625 2.74033 6 3.15283 6H11.4028C11.8153 6 12.1528 5.6625 12.1528 5.25C12.1528 4.8375 11.8153 4.5 11.4028 4.5H3.15283C2.74033 4.5 2.40283 4.8375 2.40283 5.25ZM15.3778 11.16L13.2178 9L15.3778 6.84C15.6703 6.5475 15.6703 6.075 15.3778 5.7825C15.0853 5.49 14.6128 5.49 14.3203 5.7825L11.6278 8.475C11.3353 8.7675 11.3353 9.24 11.6278 9.5325L14.3203 12.225C14.6128 12.5175 15.0853 12.5175 15.3778 12.225C15.6628 11.9325 15.6703 11.4525 15.3778 11.16Z" fill="#B8BFCC"/>
</svg>
