<svg width="18" height="18" viewBox="0 0 18 18" fill="none" xmlns="http://www.w3.org/2000/svg">
<path d="M3.15283 13.5H9.74994C10.1624 13.5 10.4999 13.1625 10.4999 12.75C10.4999 12.3375 10.1624 12 9.74994 12H3.15283C2.74033 12 2.40283 12.3375 2.40283 12.75C2.40283 13.1625 2.74033 13.5 3.15283 13.5ZM3.15283 9.75H11.2499C11.6624 9.75 11.9999 9.4125 11.9999 9C11.9999 8.5875 11.6624 8.25 11.2499 8.25H3.15283C2.74033 8.25 2.40283 8.5875 2.40283 9C2.40283 9.4125 2.74033 9.75 3.15283 9.75ZM2.40283 5.25C2.40283 5.6625 2.74033 6 3.15283 6H9.74994C10.1624 6 10.4999 5.6625 10.4999 5.25C10.4999 4.8375 10.1624 4.5 9.74994 4.5H3.15283C2.74033 4.5 2.40283 4.8375 2.40283 5.25Z" fill="#B8BFCC"/>
<path d="M12.9693 6.84752L15.1293 9.00752L12.9693 11.1675C12.6768 11.46 12.6768 11.9325 12.9693 12.225C13.2618 12.5175 13.7343 12.5175 14.0268 12.225L16.7193 9.53252C17.0118 9.24002 17.0118 8.76752 16.7193 8.47502L14.0268 5.78252C13.7343 5.49002 13.2618 5.49002 12.9693 5.78252C12.6843 6.07502 12.6768 6.55502 12.9693 6.84752Z" fill="#B8BFCC"/>
</svg>
