<svg width="9" height="15" viewBox="0 0 9 15" fill="none" xmlns="http://www.w3.org/2000/svg">
<path d="M4.49989 2.26883C5.4155 2.26883 6.16028 2.9878 6.16028 3.87168C6.16028 4.75483 5.41531 5.47379 4.49989 5.47379C3.58485 5.47379 2.83989 4.75483 2.83989 3.87168C2.8397 2.98761 3.58505 2.26883 4.49989 2.26883ZM4.49989 7.74151C6.71156 7.74151 8.51015 6.00579 8.51015 3.87168C8.51015 1.73646 6.71175 0 4.49989 0C2.28841 0 0.489625 1.73664 0.489625 3.87168C0.489625 6.00579 2.28841 7.74151 4.49989 7.74151ZM6.12227 10.8992C6.94725 10.7179 7.73453 10.4032 8.45084 9.96846C8.71455 9.80829 8.90154 9.55356 8.97069 9.2603C9.03985 8.96704 8.98549 8.65927 8.81958 8.4047C8.73753 8.27853 8.63051 8.1692 8.50465 8.08299C8.3788 7.99677 8.23657 7.93535 8.0861 7.90223C7.93564 7.86912 7.77988 7.86497 7.62775 7.89001C7.47562 7.91506 7.3301 7.9688 7.19951 8.04818C5.55659 9.04529 3.44204 9.04455 1.80047 8.04818C1.66989 7.96878 1.52438 7.91502 1.37226 7.88996C1.22014 7.86491 1.0644 7.86906 0.913941 7.90217C0.763484 7.93529 0.621267 7.99672 0.495428 8.08295C0.36959 8.16918 0.262601 8.27851 0.180582 8.4047C0.014622 8.65921 -0.0398241 8.96692 0.0292182 9.26018C0.0982605 9.55343 0.285137 9.8082 0.548746 9.96846C1.26501 10.403 2.05213 10.7177 2.87693 10.8992L0.635125 13.0637C0.414817 13.2765 0.29108 13.565 0.291134 13.8658C0.291188 14.1666 0.415028 14.4551 0.635413 14.6678C0.855797 14.8805 1.15467 14.9999 1.46629 14.9999C1.77791 14.9998 2.07674 14.8803 2.29705 14.6675L4.49951 12.541L6.70331 14.6677C6.81227 14.773 6.94168 14.8566 7.08414 14.9136C7.22659 14.9707 7.37929 15 7.5335 15C7.68772 15 7.84041 14.9707 7.98287 14.9136C8.12532 14.8566 8.25473 14.773 8.3637 14.6677C8.47298 14.5625 8.55969 14.4376 8.61885 14.3C8.67802 14.1624 8.70847 14.0149 8.70847 13.8659C8.70847 13.7169 8.67802 13.5694 8.61885 13.4318C8.55969 13.2942 8.47298 13.1693 8.3637 13.0641L6.12227 10.8992Z" fill="white"/>
</svg>
