<svg width="14" height="14" viewBox="0 0 14 14" fill="none" xmlns="http://www.w3.org/2000/svg">
<path fill-rule="evenodd" clip-rule="evenodd" d="M9.85501 3.22381C10.0033 3.22372 10.1455 3.28258 10.2503 3.38742L10.8623 3.99934C10.9671 4.10418 11.026 4.2464 11.0259 4.39466C11.0258 4.54293 10.9667 4.68508 10.8618 4.78979L3.93521 11.6993C3.88331 11.7511 3.82173 11.7922 3.75397 11.8202L2.74038 12.2388C2.53175 12.325 2.29175 12.2772 2.13213 12.1175C1.97251 11.9579 1.92465 11.7179 2.01084 11.5093L2.42953 10.4957C2.45751 10.428 2.49856 10.3664 2.55034 10.3145L9.45989 3.38791C9.5646 3.28294 9.70675 3.2239 9.85501 3.22381Z" fill="currentColor"/>
<path fill-rule="evenodd" clip-rule="evenodd" d="M11.1601 1.79319C11.2787 1.74405 11.4059 1.71875 11.5343 1.71875C11.6627 1.71875 11.7899 1.74405 11.9085 1.79319C12.0272 1.84233 12.1349 1.91436 12.2257 2.00516L12.2258 2.00518L12.2449 2.02435C12.4281 2.2077 12.5311 2.45629 12.5311 2.71549C12.5311 2.97469 12.4281 3.22329 12.2449 3.40664L11.9454 3.70614C11.7273 3.92429 11.3736 3.92429 11.1555 3.70614L10.5435 3.09423C10.4388 2.98944 10.3799 2.84731 10.3799 2.69912C10.38 2.55094 10.4389 2.40883 10.5437 2.30409L10.8429 2.00518C10.8429 2.00514 10.8429 2.0051 10.843 2.00506L10.8431 2.00499C10.9338 1.91427 11.0415 1.8423 11.1601 1.79319Z" fill="currentColor"/>
</svg>
