<svg width="18" height="18" viewBox="0 0 18 18" fill="none" xmlns="http://www.w3.org/2000/svg">
<g clip-path="url(#clip0_656_25034)">
<path fill-rule="evenodd" clip-rule="evenodd" d="M6.03794 1.10814C5.43162 1.10814 4.94011 1.59965 4.94011 2.20597V15.3799C4.94011 15.9862 5.43162 16.4777 6.03794 16.4777H11.5271C12.1334 16.4777 12.6249 15.9862 12.6249 15.3799V2.20597C12.6249 1.59965 12.1334 1.10814 11.5271 1.10814H10.9433C10.8947 1.29643 10.7965 1.47012 10.6566 1.60996C10.4507 1.81585 10.1715 1.93151 9.88033 1.93151H7.68468C7.39352 1.93151 7.11428 1.81585 6.9084 1.60996C6.76855 1.47012 6.67033 1.29643 6.62171 1.10814H6.03794ZM6.03794 0.0103149H11.5271C12.7397 0.0103149 13.7227 0.993342 13.7227 2.20597V15.3799C13.7227 16.5925 12.7397 17.5755 11.5271 17.5755H6.03794C4.82531 17.5755 3.84229 16.5925 3.84229 15.3799V2.20597C3.84229 0.993342 4.82531 0.0103149 6.03794 0.0103149Z" fill="#373737"/>
</g>
<defs>
<clipPath id="clip0_656_25034">
<rect width="17.5652" height="17.5652" fill="white" transform="translate(0 0.0103149)"/>
</clipPath>
</defs>
</svg>
