<svg width="18" height="19" viewBox="0 0 18 19" fill="none" xmlns="http://www.w3.org/2000/svg">
<path fill-rule="evenodd" clip-rule="evenodd" d="M12.8535 3.94009C13.0505 3.69992 13.405 3.66496 13.6451 3.86201C14.4789 4.54609 15.1506 5.4066 15.6117 6.38154C16.0728 7.35648 16.3119 8.42157 16.3118 9.50007C16.3118 13.5373 13.0365 16.8125 8.9993 16.8125C4.96235 16.8125 1.68725 13.5377 1.6868 9.50084C1.68372 8.42618 1.91756 7.36404 2.37166 6.39002C2.82588 5.41574 3.48932 4.55359 4.31473 3.86496C4.55327 3.66594 4.90798 3.69798 5.107 3.93653C5.30601 4.17507 5.27397 4.52978 5.03543 4.72879C4.337 5.31149 3.77563 6.041 3.39129 6.86538C3.00695 7.68977 2.80909 8.58875 2.8118 9.49833L2.8118 9.5C2.8118 12.9159 5.5834 15.6875 8.9993 15.6875C12.4152 15.6875 15.1868 12.9159 15.1868 9.5V9.49993C15.1869 8.58784 14.9847 7.68707 14.5947 6.86255C14.2047 6.03803 13.6367 5.31028 12.9316 4.73174C12.6914 4.53469 12.6564 4.18025 12.8535 3.94009Z" fill="#797979"/>
<path fill-rule="evenodd" clip-rule="evenodd" d="M8.9993 2.1875C9.30996 2.1875 9.5618 2.43934 9.5618 2.75V9.5C9.5618 9.81066 9.30996 10.0625 8.9993 10.0625C8.68864 10.0625 8.4368 9.81066 8.4368 9.5V2.75C8.4368 2.43934 8.68864 2.1875 8.9993 2.1875Z" fill="#797979"/>
</svg>
