<svg width="36" height="37" viewBox="0 0 36 37" fill="none" xmlns="http://www.w3.org/2000/svg">
<path d="M18.4828 16.3344L19.3153 18.0208C19.354 18.0989 19.411 18.1666 19.4816 18.2179C19.5521 18.2693 19.634 18.3027 19.7203 18.3155L21.5811 18.5855C21.6805 18.5998 21.774 18.6417 21.8509 18.7064C21.9277 18.7711 21.9849 18.8561 22.016 18.9517C22.047 19.0472 22.0506 19.1496 22.0265 19.2471C22.0023 19.3447 21.9513 19.4335 21.8792 19.5035L20.5326 20.8164C20.47 20.8774 20.4232 20.9527 20.3962 21.0358C20.3692 21.1188 20.3627 21.2072 20.3773 21.2934L20.6957 23.1474C20.7127 23.2464 20.7017 23.3481 20.6639 23.4412C20.6261 23.5342 20.563 23.6148 20.4817 23.6738C20.4005 23.7328 20.3043 23.7679 20.2041 23.7751C20.104 23.7822 20.0038 23.7612 19.9149 23.7144L18.2499 22.8391C18.1727 22.7987 18.0868 22.7776 17.9996 22.7776C17.9124 22.7776 17.8266 22.7987 17.7493 22.8391L16.0843 23.7144C15.9955 23.7612 15.8953 23.7822 15.7951 23.7751C15.6949 23.7679 15.5988 23.7328 15.5175 23.6738C15.4363 23.6148 15.3731 23.5342 15.3353 23.4412C15.2975 23.3481 15.2865 23.2464 15.3036 23.1474L15.6219 21.2934C15.6368 21.2072 15.6304 21.1188 15.6033 21.0357C15.5763 20.9526 15.5294 20.8773 15.4667 20.8164L14.1201 19.5035C14.048 19.4335 13.997 19.3447 13.9728 19.2471C13.9486 19.1496 13.9523 19.0472 13.9833 18.9517C14.0143 18.8561 14.0715 18.7711 14.1484 18.7064C14.2253 18.6417 14.3187 18.5998 14.4182 18.5855L16.2789 18.3155C16.3653 18.3029 16.4473 18.2695 16.5179 18.2182C16.5884 18.1668 16.6454 18.0991 16.6839 18.0208L17.5164 16.3344C17.561 16.2442 17.6298 16.1683 17.7152 16.1153C17.8006 16.0622 17.8991 16.0341 17.9996 16.0341C18.1002 16.0341 18.1987 16.0622 18.2841 16.1153C18.3695 16.1683 18.4383 16.2442 18.4828 16.3344ZM9.73819 19.2673C9.91992 17.7661 10.5098 16.3435 11.4437 15.1543L7.43982 11.1504C5.47162 13.4214 4.29292 16.2695 4.08057 19.2673H9.73819ZM9.73819 21.2911H4.08057C4.29316 24.2888 5.47183 27.1368 7.43982 29.408L11.4437 25.4041C10.5103 24.2146 9.92048 22.7921 9.73819 21.2911ZM26.2622 21.2911C26.0805 22.7918 25.4911 24.2139 24.5578 25.403L28.5617 29.4069C30.5299 27.1358 31.7086 24.2877 31.9209 21.29H26.2622V21.2911ZM23.1257 26.8363C21.9359 27.7692 20.5136 28.359 19.0127 28.5418V34.1994C22.0101 33.987 24.8578 32.8083 27.1284 30.8401L23.1257 26.8363ZM24.5567 15.1543C25.4897 16.3439 26.0792 17.7663 26.2611 19.2673H31.9187C31.7063 16.2698 30.5276 13.4221 28.5594 11.1515L24.5567 15.1543ZM16.9877 28.5406C15.4865 28.3589 14.064 27.769 12.8747 26.8351L8.87082 30.839C11.1419 32.8072 13.9899 33.9859 16.9877 34.1983V28.5406ZM18.5244 8.46613L21.2987 3.65788C21.3518 3.56586 21.3798 3.46148 21.3798 3.35523C21.3798 3.24898 21.3518 3.1446 21.2987 3.05259C21.2455 2.96058 21.1691 2.88417 21.0771 2.83106C20.9851 2.77794 20.8807 2.74999 20.7744 2.75H15.2271C15.1208 2.74976 15.0164 2.77752 14.9244 2.8305C14.8323 2.88347 14.7558 2.95979 14.7027 3.05174C14.6495 3.1437 14.6215 3.24805 14.6216 3.35427C14.6216 3.46049 14.6496 3.56482 14.7028 3.65675L17.4771 8.465C17.5299 8.55713 17.6061 8.6337 17.698 8.68698C17.7899 8.74026 17.8942 8.76838 18.0004 8.76849C18.1066 8.76861 18.211 8.74072 18.303 8.68763C18.395 8.63455 18.4714 8.55814 18.5244 8.46613ZM15.7221 9.4775L14.2101 6.85513C12.242 7.40576 10.4194 8.38331 8.87194 9.71825L12.8758 13.7221C14.0656 12.7892 15.4879 12.1994 16.9888 12.0166V10.5654C16.4585 10.3518 16.0133 9.96944 15.7221 9.4775ZM21.7914 6.85513L20.2783 9.4775C19.9864 9.96875 19.542 10.3512 19.0127 10.5665V12.0178C20.5136 12.1997 21.936 12.7891 23.1257 13.7221L27.1296 9.71825C25.582 8.38355 23.7594 7.40603 21.7914 6.85513Z" fill="#9747FF"/>
</svg>
