<svg width="22" height="22" viewBox="0 0 22 22" fill="none" xmlns="http://www.w3.org/2000/svg">
<path fill-rule="evenodd" clip-rule="evenodd" d="M2.17571 6.24913C2.98734 5.28419 4.37885 4.8125 6.41663 4.8125H15.5833C17.6211 4.8125 19.0126 5.28419 19.8242 6.24913C20.628 7.20469 20.7044 8.46006 20.5756 9.63061L19.8878 16.9674C19.7868 17.9098 19.5502 18.943 18.7088 19.7117C17.8736 20.4748 16.5796 20.8542 14.6666 20.8542H7.3333C5.42035 20.8542 4.12637 20.4748 3.29116 19.7117C2.44972 18.943 2.21319 17.9098 2.11221 16.9674L2.11124 16.9583L1.42433 9.63063C1.29551 8.46008 1.37196 7.2047 2.17571 6.24913ZM3.22797 7.13421C2.79556 7.6483 2.67384 8.42076 2.79163 9.48522L2.7929 9.49665L3.47987 16.8254C3.57158 17.6773 3.76143 18.279 4.21857 18.6966C4.68273 19.1206 5.56125 19.4792 7.3333 19.4792H14.6666C16.4387 19.4792 17.3172 19.1206 17.7814 18.6966C18.2385 18.279 18.4284 17.6773 18.5201 16.8254L19.2082 9.48521C19.326 8.42075 19.2044 7.6483 18.772 7.13421C18.3461 6.62789 17.4597 6.1875 15.5833 6.1875H6.41663C4.54025 6.1875 3.65385 6.62789 3.22797 7.13421Z" fill="#797979"/>
<path fill-rule="evenodd" clip-rule="evenodd" d="M8.0608 3.71285C8.02186 4.01112 8.02075 4.35008 8.02075 4.76667V5.5C8.02075 5.8797 7.71295 6.1875 7.33325 6.1875C6.95356 6.1875 6.64575 5.8797 6.64575 5.5L6.64575 4.74284C6.64573 4.35461 6.64571 3.93056 6.69737 3.53484C6.75091 3.12481 6.86562 2.68951 7.13436 2.30068C7.69969 1.4827 8.7353 1.14583 10.2666 1.14583H11.7333C13.2645 1.14583 14.3001 1.4827 14.8655 2.30068C15.1342 2.68951 15.2489 3.12481 15.3025 3.53484C15.3541 3.93056 15.3541 4.35461 15.3541 4.74285L15.3541 5.5C15.3541 5.8797 15.0463 6.1875 14.6666 6.1875C14.2869 6.1875 13.9791 5.8797 13.9791 5.5V4.76667C13.9791 4.35008 13.978 4.01112 13.939 3.71285C13.9009 3.42076 13.8323 3.22414 13.7344 3.08245C13.5664 2.83938 13.1353 2.52083 11.7333 2.52083H10.2666C8.86454 2.52083 8.43348 2.83938 8.26549 3.08245C8.16756 3.22414 8.09894 3.42076 8.0608 3.71285Z" fill="#797979"/>
<path fill-rule="evenodd" clip-rule="evenodd" d="M9.85474 11.6882C9.85403 11.7537 9.85401 11.8283 9.85401 11.9167V12.8608C9.85401 13.1189 9.85626 13.3087 9.87867 13.4698C9.90023 13.6246 9.93445 13.7 9.96346 13.7409C9.9958 13.7865 10.157 13.9792 10.9998 13.9792C11.8465 13.9792 12.0058 13.7847 12.0374 13.7395C12.0666 13.6978 12.1008 13.6213 12.122 13.4646C12.144 13.3017 12.1457 13.111 12.1457 12.8517V11.9167C12.1457 11.8283 12.1457 11.7537 12.145 11.6882C12.0795 11.6875 12.0049 11.6875 11.9165 11.6875H10.0832C9.99477 11.6875 9.92018 11.6875 9.85474 11.6882ZM10.0531 10.3125C10.0631 10.3125 10.0732 10.3125 10.0832 10.3125H11.9165C11.9265 10.3125 11.9366 10.3125 11.9466 10.3125C12.1493 10.3125 12.3548 10.3124 12.5224 10.331C12.6932 10.35 12.9771 10.4008 13.2047 10.6284C13.4324 10.8561 13.4832 11.1399 13.5022 11.3108C13.5208 11.4784 13.5207 11.6838 13.5207 11.8866C13.5207 11.8966 13.5207 11.9066 13.5207 11.9167V12.862C13.5207 13.1 13.5207 13.3817 13.4845 13.649C13.447 13.9263 13.3648 14.241 13.1637 14.5282C12.7347 15.1407 11.9774 15.3542 10.9998 15.3542C10.0277 15.3542 9.27222 15.1435 8.84165 14.536C8.6392 14.2504 8.5554 13.9367 8.5168 13.6593C8.47905 13.3881 8.47901 13.1024 8.47901 12.8608V11.9167C8.47901 11.9066 8.47901 11.8966 8.47901 11.8866C8.47896 11.6838 8.47892 11.4784 8.49754 11.3108C8.51653 11.1399 8.56729 10.8561 8.79496 10.6284C9.02263 10.4008 9.30645 10.35 9.47731 10.331C9.64493 10.3124 9.85036 10.3125 10.0531 10.3125Z" fill="#797979"/>
<path fill-rule="evenodd" clip-rule="evenodd" d="M20.4018 9.67897C20.6252 9.98604 20.5573 10.416 20.2502 10.6393C18.0354 12.2501 15.505 13.2082 12.9192 13.5338C12.5425 13.5812 12.1987 13.3143 12.1512 12.9376C12.1038 12.5608 12.3707 12.217 12.7474 12.1696C15.1117 11.8718 17.4213 10.9966 19.4415 9.52733C19.7485 9.304 20.1785 9.37189 20.4018 9.67897Z" fill="#797979"/>
<path fill-rule="evenodd" clip-rule="evenodd" d="M1.83434 9.94252C2.0488 9.62919 2.47666 9.54904 2.78999 9.7635C4.75981 11.1117 6.98111 11.9243 9.24318 12.1776C9.62052 12.2199 9.89216 12.56 9.84991 12.9373C9.80766 13.3147 9.46751 13.5863 9.09018 13.5441C6.60391 13.2657 4.16855 12.3733 2.01337 10.8982C1.70003 10.6837 1.61988 10.2559 1.83434 9.94252Z" fill="#797979"/>
</svg>
