<svg width="9" height="9" viewBox="0 0 9 9" fill="none" xmlns="http://www.w3.org/2000/svg">
<path fill-rule="evenodd" clip-rule="evenodd" d="M5.53892 1.11404C5.09374 0.923535 4.61445 0.825595 4.13022 0.826174C2.154 0.826267 0.550781 2.42955 0.550781 4.40579C0.550781 6.38209 2.15409 7.9854 4.1304 7.9854H4.13041C4.87074 7.98535 5.59285 7.75587 6.19737 7.32852C6.8019 6.90118 7.25913 6.29698 7.50613 5.59908C7.55687 5.45572 7.48179 5.29837 7.33842 5.24763C7.19506 5.19689 7.03772 5.27198 6.98698 5.41534C6.77796 6.00592 6.39104 6.5172 5.87948 6.87883C5.36792 7.24045 4.75686 7.43465 4.1304 7.43469L4.13024 1.37688C4.13029 1.37688 4.13034 1.37688 4.1304 1.37688H4.13057L4.13074 1.37688C4.54031 1.37637 4.94571 1.45921 5.32226 1.62034C5.69671 1.78058 6.03484 2.01491 6.31633 2.30922L6.48813 2.50909L5.61213 3.38508C5.43866 3.55856 5.56154 3.85508 5.80695 3.85508H7.70999C7.78302 3.85508 7.85306 3.82607 7.9047 3.77443C7.95634 3.72279 7.98535 3.65275 7.98535 3.57973V1.67668C7.98535 1.43127 7.68883 1.30805 7.51535 1.48186L6.87865 2.11857L6.72473 1.9395L6.7199 1.93443C6.38596 1.58369 5.98415 1.30456 5.53892 1.11404ZM4.13024 1.37688L4.13038 7.43469C2.45823 7.43468 1.10149 6.07794 1.10149 4.40579C1.10149 2.73369 2.45816 1.37697 4.13024 1.37688Z" fill="white"/>
</svg>
