<svg width="24" height="25" viewBox="0 0 24 25" fill="none" xmlns="http://www.w3.org/2000/svg">
<path d="M15.415 7.84942C15.1256 7.84958 14.8452 7.95009 14.6215 8.13383C14.3979 8.31757 14.2449 8.57316 14.1885 8.85707C14.1322 9.14097 14.1761 9.43562 14.3126 9.69082C14.4492 9.94601 14.67 10.146 14.9375 10.2566C15.2049 10.3672 15.5025 10.3817 15.7794 10.2976C16.0564 10.2134 16.2956 10.0359 16.4563 9.79514C16.617 9.55442 16.6892 9.26542 16.6607 8.97738C16.6323 8.68935 16.5048 8.4201 16.3 8.21552C16.1839 8.09918 16.046 8.00694 15.8941 7.94411C15.7422 7.88128 15.5794 7.8491 15.415 7.84942Z" fill="#373737"/>
<path d="M22.3802 2.84646C22.38 2.84506 22.38 2.84364 22.3802 2.84224C22.3406 2.66848 22.2531 2.50926 22.1278 2.38253C22.0025 2.25581 21.8443 2.16663 21.671 2.12505C20.2741 1.78427 18.0766 2.14755 15.6414 3.12255C13.1871 4.10693 10.8874 5.56005 9.33301 7.11724C8.83479 7.61281 8.37194 8.1427 7.94785 8.70302C6.90113 8.65614 5.9791 8.80521 5.20238 9.14411C2.49582 10.3352 1.72285 13.3835 1.51707 14.635C1.48729 14.8129 1.49895 14.9952 1.55114 15.1678C1.60333 15.3404 1.69464 15.4986 1.81796 15.6301C1.94129 15.7616 2.0933 15.863 2.26217 15.9261C2.43105 15.9893 2.61222 16.0127 2.7916 15.9944H2.79769L5.81269 15.6654C5.81644 15.7038 5.82066 15.739 5.82394 15.7713C5.86267 16.1387 6.02651 16.4816 6.288 16.7425L7.75941 18.2149C8.01997 18.4767 8.36281 18.6408 8.73019 18.6794L8.83097 18.6902L8.50285 21.7015C8.50285 21.7015 8.50285 21.7052 8.50285 21.7075C8.48608 21.8697 8.50334 22.0336 8.55352 22.1887C8.6037 22.3439 8.68569 22.4868 8.79427 22.6085C8.90284 22.7301 9.0356 22.8277 9.18406 22.8951C9.33252 22.9625 9.49341 22.9982 9.65644 22.9999C9.72161 22.9999 9.78668 22.9946 9.85097 22.984C11.1096 22.7815 14.1564 22.0179 15.3443 19.2968C15.6803 18.5252 15.8289 17.6069 15.7872 16.5621C16.3501 16.1389 16.8819 15.676 17.3786 15.1769C18.9457 13.6179 20.4035 11.3369 21.3775 8.91817C22.3474 6.51067 22.7125 4.29677 22.3802 2.84646ZM17.3618 11.044C16.9766 11.4295 16.4857 11.6922 15.9513 11.7987C15.4168 11.9052 14.8628 11.8508 14.3592 11.6424C13.8557 11.434 13.4252 11.0809 13.1224 10.6278C12.8196 10.1747 12.6579 9.64198 12.6579 9.097C12.6579 8.55202 12.8196 8.01929 13.1224 7.5662C13.4252 7.1131 13.8557 6.76001 14.3592 6.55158C14.8628 6.34316 15.4168 6.28877 15.9513 6.3953C16.4857 6.50183 16.9766 6.76449 17.3618 7.15005C17.6199 7.40433 17.8249 7.70741 17.9649 8.04166C18.1048 8.37591 18.1769 8.73465 18.1769 9.097C18.1769 9.45936 18.1048 9.8181 17.9649 10.1523C17.8249 10.4866 17.6199 10.7897 17.3618 11.044Z" fill="#373737"/>
<path d="M7.59066 18.6143C7.40928 18.5918 7.22592 18.6363 7.07504 18.7394C6.77551 18.9443 6.47457 19.1468 6.17082 19.3441C5.55629 19.7435 4.82129 19.0422 5.18644 18.4066L5.75597 17.4222C5.8374 17.3031 5.88274 17.1631 5.88655 17.0188C5.89037 16.8746 5.85251 16.7323 5.7775 16.6091C5.70249 16.4858 5.59352 16.3868 5.46366 16.3239C5.3338 16.2611 5.18855 16.237 5.04535 16.2546C4.41324 16.3345 3.82568 16.6224 3.37519 17.073C3.20363 17.245 2.68191 17.7672 2.40113 19.7571C2.32121 20.3286 2.27083 20.9039 2.25019 21.4807C2.24763 21.5808 2.26513 21.6804 2.30167 21.7736C2.33821 21.8668 2.39305 21.9518 2.46295 22.0235C2.53285 22.0952 2.6164 22.1521 2.70867 22.191C2.80094 22.2299 2.90006 22.2499 3.00019 22.2499H3.01894C3.59613 22.2295 4.17189 22.1794 4.74394 22.0999C6.73472 21.8186 7.25691 21.2965 7.42847 21.1249C7.88114 20.6742 8.16837 20.0839 8.24363 19.4496C8.26773 19.2522 8.21249 19.0534 8.09005 18.8968C7.96761 18.7401 7.78799 18.6385 7.59066 18.6143Z" fill="#373737"/>
</svg>
