<svg width="22" height="22" viewBox="0 0 22 22" fill="none" xmlns="http://www.w3.org/2000/svg">
<path fill-rule="evenodd" clip-rule="evenodd" d="M11 8.9375C9.86091 8.9375 8.9375 9.86091 8.9375 11C8.9375 12.1391 9.86091 13.0625 11 13.0625C12.1391 13.0625 13.0625 12.1391 13.0625 11C13.0625 9.86091 12.1391 8.9375 11 8.9375ZM7.5625 11C7.5625 9.10152 9.10152 7.5625 11 7.5625C12.8985 7.5625 14.4375 9.10152 14.4375 11C14.4375 12.8985 12.8985 14.4375 11 14.4375C9.10152 14.4375 7.5625 12.8985 7.5625 11Z" fill="#797979"/>
<path fill-rule="evenodd" clip-rule="evenodd" d="M8.8031 3.45599C8.55774 3.0472 8.041 2.92004 7.65727 3.14834L7.64727 3.15429L6.06139 4.0617C5.55963 4.34842 5.38652 4.99848 5.67353 5.49523L5.07825 5.83917L5.67306 5.49441C6.16354 6.34061 6.29539 7.26808 5.85726 8.02837C5.41918 8.78856 4.55098 9.13917 3.57492 9.13917C2.99446 9.13917 2.52075 9.61734 2.52075 10.1933V11.8067C2.52075 12.3827 2.99446 12.8608 3.57492 12.8608C4.55098 12.8608 5.41918 13.2114 5.85726 13.9716C6.29533 14.7318 6.16357 15.6591 5.67325 16.5053C5.38664 17.0019 5.55942 17.6515 6.06101 17.9381L7.65732 18.8516C8.04105 19.0799 8.55771 18.9528 8.80308 18.544L8.9016 18.3739C9.39191 17.528 10.131 16.9515 11.0079 16.9515C11.8856 16.9515 12.6224 17.5284 13.1082 18.3753C13.1084 18.3757 13.1086 18.376 13.1089 18.3764L13.2059 18.544C13.4513 18.9528 13.968 19.08 14.3517 18.8517L14.3617 18.8457L15.9476 17.9383C16.4481 17.6523 16.6238 17.0113 16.3347 16.5035C15.8452 15.6578 15.714 14.7313 16.1517 13.9716C16.5898 13.2114 17.458 12.8608 18.4341 12.8608C19.0145 12.8608 19.4883 12.3827 19.4883 11.8067V10.1933C19.4883 9.61288 19.0101 9.13917 18.4341 9.13917C17.458 9.13917 16.5898 8.78856 16.1517 8.02837C15.7137 7.26823 15.8454 6.34097 16.3357 5.4949C16.6224 4.99819 16.4496 4.34857 15.948 4.06192L14.3517 3.14843C13.9679 2.92013 13.4513 3.0472 13.2059 3.45599L13.1074 3.62613C12.6171 4.47204 11.878 5.04854 11.0011 5.04854C10.1235 5.04854 9.38678 4.47172 8.90095 3.62499C8.90068 3.62452 8.90041 3.62405 8.90014 3.62358L8.8031 3.45599ZM6.9597 1.96342C8.02251 1.33517 9.37061 1.72061 9.98659 2.75599L9.99078 2.76301L10.0916 2.9372L10.093 2.93975C10.4322 3.53142 10.786 3.67354 11.0011 3.67354C11.2172 3.67354 11.5736 3.53021 11.9174 2.9372C11.9174 2.9373 11.9175 2.9371 11.9174 2.9372L12.0224 2.75596C12.6384 1.72058 13.9865 1.33517 15.0493 1.96343L16.6302 2.86808C17.7968 3.5347 18.1924 5.02986 17.526 6.18311L17.5256 6.18393C17.1819 6.77689 17.2358 7.15567 17.3431 7.34184C17.4504 7.52811 17.751 7.76417 18.4341 7.76417C19.7648 7.76417 20.8633 8.84879 20.8633 10.1933V11.8067C20.8633 13.1373 19.7786 14.2358 18.4341 14.2358C17.751 14.2358 17.4504 14.4719 17.3431 14.6582C17.2358 14.8443 17.1819 15.2231 17.5256 15.8161L17.5277 15.8197C18.1906 16.9799 17.7977 18.4645 16.6306 19.1317C16.6304 19.1318 16.6307 19.1316 16.6306 19.1317L15.0492 20.0366C13.9864 20.6648 12.6384 20.2794 12.0224 19.244L12.0182 19.237L11.9174 19.0628L11.916 19.0602C11.5768 18.4686 11.223 18.3265 11.0079 18.3265C10.7918 18.3265 10.4354 18.4698 10.0916 19.0628C10.0915 19.0629 10.0916 19.0627 10.0916 19.0628L9.98664 19.244C9.37067 20.2794 8.02257 20.6648 6.95977 20.0366L5.37882 19.1319C5.3787 19.1318 5.37895 19.132 5.37882 19.1319C4.21253 18.4652 3.81672 16.97 4.48297 15.8169L4.48344 15.8161C4.82714 15.2231 4.7732 14.8443 4.66591 14.6582C4.55857 14.4719 4.25803 14.2358 3.57492 14.2358C2.23037 14.2358 1.14575 13.1373 1.14575 11.8067V10.1933C1.14575 8.86266 2.23037 7.76417 3.57492 7.76417C4.25803 7.76417 4.55857 7.52811 4.66591 7.34184C4.7732 7.15567 4.82714 6.77689 4.48344 6.18393L4.48297 6.18311C3.81672 5.02998 4.21216 3.53501 5.37845 2.8683L6.9597 1.96342Z" fill="#797979"/>
</svg>
