<svg width="22" height="23" viewBox="0 0 22 23" fill="none" xmlns="http://www.w3.org/2000/svg">
<g clip-path="url(#clip0_656_24429)">
<path d="M8.93742 22.5009C8.72015 22.502 8.50772 22.4367 8.32851 22.3139C8.1493 22.191 8.01185 22.0164 7.93453 21.8134L6.22265 17.3618C6.18798 17.2721 6.13494 17.1906 6.06694 17.1226C5.99894 17.0546 5.91747 17.0016 5.82777 16.9669L1.37492 15.2537C1.17208 15.1759 0.997619 15.0384 0.874555 14.8593C0.751491 14.6803 0.685611 14.4681 0.685611 14.2509C0.685611 14.0336 0.751491 13.8214 0.874555 13.6424C0.997619 13.4633 1.17208 13.3258 1.37492 13.248L5.82648 11.5361C5.91618 11.5014 5.99765 11.4484 6.06565 11.3804C6.13366 11.3124 6.18669 11.2309 6.22136 11.1412L7.93453 6.68836C8.01238 6.48552 8.1499 6.31106 8.32895 6.18799C8.508 6.06493 8.72016 5.99905 8.93742 5.99905C9.15468 5.99905 9.36684 6.06493 9.54589 6.18799C9.72494 6.31106 9.86246 6.48552 9.94031 6.68836L11.6522 11.1399C11.6869 11.2296 11.7399 11.3111 11.8079 11.3791C11.8759 11.4471 11.9574 11.5001 12.0471 11.5348L16.4728 13.2377C16.6839 13.3159 16.8658 13.4573 16.9937 13.6426C17.1215 13.8279 17.1892 14.0481 17.1874 14.2732C17.1841 14.4867 17.1169 14.6943 16.9943 14.8691C16.8717 15.0439 16.6995 15.1779 16.4999 15.2537L12.0484 16.9656C11.9587 17.0003 11.8772 17.0533 11.8092 17.1213C11.7412 17.1893 11.6881 17.2708 11.6535 17.3605L9.94031 21.8134C9.86299 22.0164 9.72554 22.191 9.54633 22.3139C9.36713 22.4367 9.15469 22.502 8.93742 22.5009Z" fill="#373737"/>
<path d="M3.78117 8.06336C3.65379 8.06335 3.5294 8.02475 3.42439 7.95265C3.31939 7.88055 3.23869 7.77833 3.19293 7.65945L2.46847 5.7757C2.45277 5.7345 2.42854 5.69709 2.39736 5.66591C2.36619 5.63474 2.32877 5.61051 2.28758 5.5948L0.403825 4.87035C0.284965 4.82458 0.182758 4.74387 0.110672 4.63886C0.038585 4.53386 0 4.40948 0 4.28211C0 4.15474 0.038585 4.03036 0.110672 3.92535C0.182758 3.82034 0.284965 3.73964 0.403825 3.69387L2.28758 2.96941C2.32873 2.95364 2.36611 2.92938 2.39728 2.89821C2.42844 2.86705 2.4527 2.82967 2.46847 2.78851L3.18648 0.921522C3.22697 0.811609 3.29665 0.714808 3.38803 0.641524C3.47941 0.56824 3.58903 0.521243 3.70511 0.505584C3.84448 0.488642 3.98552 0.518711 4.10586 0.591023C4.2262 0.663335 4.31895 0.773752 4.36941 0.904764L5.09386 2.78851C5.10964 2.82967 5.1339 2.86705 5.16506 2.89821C5.19623 2.92938 5.23361 2.95364 5.27476 2.96941L7.15851 3.69387C7.27737 3.73964 7.37958 3.82034 7.45167 3.92535C7.52375 4.03036 7.56234 4.15474 7.56234 4.28211C7.56234 4.40948 7.52375 4.53386 7.45167 4.63886C7.37958 4.74387 7.27737 4.82458 7.15851 4.87035L5.27476 5.5948C5.23357 5.61051 5.19615 5.63474 5.16498 5.66591C5.1338 5.69709 5.10957 5.7345 5.09386 5.7757L4.36941 7.65945C4.32365 7.77833 4.24295 7.88055 4.13794 7.95265C4.03294 8.02475 3.90855 8.06335 3.78117 8.06336Z" fill="#373737"/>
<path d="M17.1874 11.5009C17.0485 11.5008 16.9128 11.4587 16.7983 11.38C16.6837 11.3013 16.5957 11.1897 16.5459 11.06L15.5645 8.50894C15.5472 8.46399 15.5207 8.42317 15.4867 8.38912C15.4526 8.35507 15.4118 8.32855 15.3668 8.31129L12.8158 7.32988C12.6862 7.27994 12.5747 7.19192 12.4961 7.0774C12.4175 6.96289 12.3755 6.82725 12.3755 6.68836C12.3755 6.54946 12.4175 6.41383 12.4961 6.29931C12.5747 6.1848 12.6862 6.09677 12.8158 6.04683L15.3668 5.06543C15.4118 5.04816 15.4526 5.02165 15.4867 4.9876C15.5207 4.95355 15.5472 4.91272 15.5645 4.86777L16.5386 2.33476C16.5831 2.21498 16.6592 2.10949 16.7588 2.02952C16.8585 1.94954 16.9779 1.89807 17.1045 1.88058C17.2566 1.86217 17.4105 1.89509 17.5417 1.9741C17.6729 2.05311 17.774 2.1737 17.8289 2.31672L18.8104 4.86777C18.8276 4.91272 18.8541 4.95355 18.8882 4.9876C18.9222 5.02165 18.9631 5.04816 19.008 5.06543L21.5591 6.04683C21.6887 6.09677 21.8001 6.1848 21.8787 6.29931C21.9573 6.41383 21.9994 6.54946 21.9994 6.68836C21.9994 6.82725 21.9573 6.96289 21.8787 7.0774C21.8001 7.19192 21.6887 7.27994 21.5591 7.32988L19.008 8.31129C18.9631 8.32855 18.9222 8.35507 18.8882 8.38912C18.8541 8.42317 18.8276 8.46399 18.8104 8.50894L17.8289 11.06C17.7791 11.1897 17.6911 11.3013 17.5766 11.38C17.4621 11.4587 17.3264 11.5008 17.1874 11.5009Z" fill="#373737"/>
</g>
<defs>
<clipPath id="clip0_656_24429">
<rect width="22" height="22" fill="white" transform="translate(0 0.5)"/>
</clipPath>
</defs>
</svg>
