<svg width="16" height="14" viewBox="0 0 16 14" fill="none" xmlns="http://www.w3.org/2000/svg">
<path d="M14.7236 0.154297C14.7236 0.154297 15.8747 -0.360831 15.8945 0.492188L13.375 13.1484C13.3709 13.1583 13.0122 14.0187 12.0654 13.6045L8.49512 10.8672L6.19336 12.9502C6.18536 12.9563 6.01019 13.0873 5.81641 13.0098C5.80861 13.0086 5.63336 12.9748 5.43945 12.335C5.22195 11.6627 4.15842 8.17574 4.15039 8.14941L0.599609 6.95898C0.599609 6.95898 0.0634206 6.76034 0.00390625 6.34375C-0.0550527 5.92847 0.615554 5.69072 0.619141 5.68945L14.7236 0.154297ZM13.1562 2.7334C13.1761 2.43583 12.6797 2.7334 12.6797 2.7334L4.88379 7.69238C4.76486 7.77167 4.72514 7.91034 4.76465 8.0293L5.69727 11.085C5.75701 11.2631 6.01504 11.2432 6.05469 11.0449L6.27246 9.18066C6.27246 9.10131 6.31256 9.04163 6.37207 9.00195C7.12596 8.32743 12.735 3.29279 12.9775 3.05078C13.228 2.78107 13.1604 2.73578 13.1562 2.7334Z" fill="white"/>
</svg>
