<svg width="16" height="16" viewBox="0 0 16 16" fill="none" xmlns="http://www.w3.org/2000/svg">
<path d="M12.1382 14.8998C11.5323 14.8998 10.6811 14.6807 9.40649 13.9686C7.85655 13.0994 6.65769 12.2969 5.11613 10.7594C3.62983 9.27404 2.90654 8.31235 1.89425 6.47029C0.75065 4.39046 0.945596 3.30025 1.16351 2.83431C1.42303 2.27741 1.80609 1.94432 2.30121 1.61372C2.58244 1.42947 2.88005 1.27152 3.19027 1.14188C3.22131 1.12853 3.25018 1.1158 3.27594 1.10432C3.4296 1.03509 3.66242 0.930481 3.95732 1.04223C4.15413 1.11611 4.32983 1.26729 4.60487 1.53891C5.1689 2.09519 5.93968 3.33409 6.22403 3.94252C6.41494 4.35259 6.54129 4.62328 6.5416 4.92687C6.5416 5.2823 6.36279 5.55641 6.14581 5.85224C6.10514 5.90781 6.06479 5.96089 6.02567 6.01242C5.78944 6.32284 5.7376 6.41256 5.77175 6.57273C5.84097 6.89464 6.3572 7.85292 7.20559 8.69944C8.05398 9.54597 8.98463 10.0296 9.30778 10.0985C9.47478 10.1342 9.56636 10.0802 9.88672 9.83559C9.93266 9.80051 9.97984 9.7642 10.0292 9.72788C10.3601 9.48171 10.6215 9.30756 10.9685 9.30756H10.9704C11.2724 9.30756 11.531 9.43856 11.9594 9.65462C12.5182 9.93648 13.7943 10.6973 14.354 11.262C14.6263 11.5364 14.7781 11.7115 14.8522 11.908C14.964 12.2038 14.8588 12.4357 14.7902 12.5909C14.7787 12.6167 14.7659 12.6449 14.7526 12.6763C14.6219 12.9859 14.4631 13.2829 14.278 13.5635C13.948 14.057 13.6137 14.4392 13.0555 14.699C12.7689 14.8346 12.4552 14.9032 12.1382 14.8998Z" fill="white"/>
</svg>
