<svg width="13" height="13" viewBox="0 0 13 13" fill="none" xmlns="http://www.w3.org/2000/svg">
<path d="M9.21897 3.4013L10.1825 2.43779M6.81012 1.04096L6.81012 2.40357M11.5792 5.81012L10.2166 5.81012M5.36491 7.25533C4.67975 6.57017 4.11382 5.83261 3.67841 5.0878L4.88315 2.91955L2.74852 0.784908C2.26962 0.908743 1.84872 1.13645 1.51088 1.47429C-0.085509 3.07068 0.777244 6.52169 3.43789 9.18234C6.09854 11.843 9.54956 12.7057 11.1459 11.1094C11.4838 10.7715 11.7115 10.3506 11.8353 9.87172L9.70069 7.73708L7.53244 8.94182C6.78763 8.50641 6.05006 7.94048 5.36491 7.25533Z" stroke="#292D32" stroke-width="1.3626" stroke-linecap="round" stroke-linejoin="round"/>
</svg>
