<svg width="14" height="14" viewBox="0 0 14 14" fill="currentColor" xmlns="http://www.w3.org/2000/svg">
<path fill-rule="evenodd" clip-rule="evenodd" d="M0.7 8.39985C0.885652 8.39985 1.0637 8.4736 1.19497 8.60488C1.32625 8.73615 1.4 8.9142 1.4 9.09985V11.8999C1.4 12.0855 1.47375 12.2636 1.60503 12.3948C1.7363 12.5261 1.91435 12.5999 2.1 12.5999H11.9C12.0857 12.5999 12.2637 12.5261 12.395 12.3948C12.5263 12.2636 12.6 12.0855 12.6 11.8999V9.09985C12.6 8.9142 12.6737 8.73615 12.805 8.60488C12.9363 8.4736 13.1143 8.39985 13.3 8.39985C13.4857 8.39985 13.6637 8.4736 13.795 8.60488C13.9263 8.73615 14 8.9142 14 9.09985V11.8999C14 12.4568 13.7788 12.9909 13.3849 13.3848C12.9911 13.7786 12.457 13.9999 11.9 13.9999H2.1C1.54305 13.9999 1.0089 13.7786 0.615076 13.3848C0.221249 12.9909 0 12.4568 0 11.8999V9.09985C0 8.9142 0.0737498 8.73615 0.205025 8.60488C0.336301 8.4736 0.514349 8.39985 0.7 8.39985ZM6.5051 0.20495C6.63637 0.0737207 6.81439 0 7 0C7.18562 0 7.36363 0.0737207 7.4949 0.20495L10.9949 3.70495C11.1224 3.83697 11.193 4.01379 11.1914 4.19733C11.1898 4.38087 11.1162 4.55644 10.9864 4.68622C10.8566 4.81601 10.681 4.88963 10.4975 4.89122C10.3139 4.89282 10.1371 4.82226 10.0051 4.69475L7 1.68965L3.9949 4.69475C3.86288 4.82226 3.68606 4.89282 3.50252 4.89122C3.31898 4.88963 3.14341 4.81601 3.01363 4.68622C2.88384 4.55644 2.81022 4.38087 2.80863 4.19733C2.80703 4.01379 2.87759 3.83697 3.0051 3.70495L6.5051 0.20495Z" fill="currentColor"/>
<path fill-rule="evenodd" clip-rule="evenodd" d="M7.00005 0C7.1857 0 7.36375 0.0737498 7.49502 0.205025C7.6263 0.336301 7.70005 0.514349 7.70005 0.7V9.1C7.70005 9.28565 7.6263 9.4637 7.49502 9.59498C7.36375 9.72625 7.1857 9.8 7.00005 9.8C6.8144 9.8 6.63635 9.72625 6.50507 9.59498C6.3738 9.4637 6.30005 9.28565 6.30005 9.1V0.7C6.30005 0.514349 6.3738 0.336301 6.50507 0.205025C6.63635 0.0737498 6.8144 0 7.00005 0Z" fill="currentColor"/>
</svg>
