<svg width="20" height="20" viewBox="0 0 20 20" fill="none" xmlns="http://www.w3.org/2000/svg">
<path d="M15.8438 2.4375H3.65625C3.01 2.43821 2.39042 2.69524 1.93346 3.15221C1.47649 3.60917 1.21946 4.22875 1.21875 4.875V14.625C1.21946 15.2712 1.47649 15.8908 1.93346 16.3478C2.39042 16.8048 3.01 17.0618 3.65625 17.0625H15.8438C16.49 17.0618 17.1096 16.8048 17.5665 16.3478C18.0235 15.8908 18.2805 15.2712 18.2812 14.625V4.875C18.2805 4.22875 18.0235 3.60917 17.5665 3.15221C17.1096 2.69524 16.49 2.43821 15.8438 2.4375ZM12.7969 4.875C13.1584 4.875 13.5119 4.98222 13.8125 5.18309C14.1132 5.38397 14.3475 5.66949 14.4858 6.00353C14.6242 6.33758 14.6604 6.70515 14.5899 7.05977C14.5193 7.4144 14.3452 7.74014 14.0896 7.9958C13.8339 8.25147 13.5081 8.42558 13.1535 8.49612C12.7989 8.56666 12.4313 8.53046 12.0973 8.39209C11.7632 8.25373 11.4777 8.01941 11.2768 7.71878C11.076 7.41814 10.9688 7.06469 10.9688 6.70312C10.9693 6.21843 11.162 5.75373 11.5048 5.411C11.8475 5.06827 12.3122 4.8755 12.7969 4.875ZM3.65625 15.8438C3.33302 15.8438 3.02302 15.7153 2.79446 15.4868C2.5659 15.2582 2.4375 14.9482 2.4375 14.625V12.0492L6.04957 8.8386C6.39807 8.52952 6.85131 8.36493 7.31693 8.37838C7.78256 8.39182 8.22554 8.58229 8.55562 8.91097L11.0293 11.3793L6.56487 15.8438H3.65625ZM17.0625 14.625C17.0625 14.9482 16.9341 15.2582 16.7055 15.4868C16.477 15.7153 16.167 15.8438 15.8438 15.8438H8.28864L12.913 11.2194C13.2404 10.9409 13.6559 10.7875 14.0857 10.7864C14.5155 10.7853 14.9318 10.9365 15.2607 11.2133L17.0625 12.7146V14.625Z" fill="#373737"/>
</svg>
