<svg width="16" height="15" viewBox="0 0 16 15" fill="none" xmlns="http://www.w3.org/2000/svg">
  <path d="M8.10214 0.187661C3.98957 0.132114 0.632144 3.48954 0.687691 7.60211C0.742535 11.5463 3.95406 14.7578 7.89824 14.8127C12.0115 14.8689 15.3682 11.5115 15.312 7.39891C15.2578 3.45403 12.0463 0.242504 8.10214 0.187661ZM12.5466 11.6925C12.5326 11.7077 12.5154 11.7196 12.4963 11.7273C12.4772 11.7351 12.4566 11.7386 12.436 11.7375C12.4154 11.7364 12.3953 11.7308 12.3771 11.7211C12.3589 11.7114 12.3431 11.6978 12.3307 11.6813C12.0163 11.2699 11.6312 10.9176 11.1934 10.641C10.2984 10.0666 9.16422 9.75016 8.00019 9.75016C6.83617 9.75016 5.70203 10.0666 4.80695 10.641C4.36921 10.9175 3.98411 11.2696 3.66964 11.6809C3.65729 11.6975 3.64145 11.7111 3.62326 11.7208C3.60506 11.7305 3.58495 11.7361 3.56435 11.7372C3.54375 11.7382 3.52317 11.7348 3.50406 11.727C3.48495 11.7192 3.46779 11.7073 3.45378 11.6922C2.42219 10.5786 1.83783 9.12343 1.81269 7.60563C1.75539 4.18458 4.56261 1.3211 7.98507 1.31266C11.4075 1.30422 14.1877 4.08332 14.1877 7.50016C14.1889 9.05456 13.6027 10.552 12.5466 11.6925Z" fill="currentColor"/>
  <path d="M8.00019 3.56266C7.30691 3.56266 6.68007 3.82247 6.23464 4.29461C5.78921 4.76676 5.56668 5.41961 5.61695 6.12028C5.7189 7.50016 6.788 8.62516 8.00019 8.62516C9.21238 8.62516 10.2794 7.50016 10.3834 6.12063C10.4355 5.42664 10.2147 4.77977 9.76187 4.29883C9.31468 3.82422 8.6889 3.56266 8.00019 3.56266Z" fill="currentColor"/>
</svg>
