<svg width="22" height="22" viewBox="0 0 22 22" fill="none" xmlns="http://www.w3.org/2000/svg">
<path fill-rule="evenodd" clip-rule="evenodd" d="M10.9998 2.52084C8.84823 2.52084 7.104 4.26506 7.104 6.41667C7.104 8.56828 8.84823 10.3125 10.9998 10.3125C13.1514 10.3125 14.8957 8.56828 14.8957 6.41667C14.8957 4.26506 13.1514 2.52084 10.9998 2.52084ZM5.729 6.41667C5.729 3.50567 8.08884 1.14584 10.9998 1.14584C13.9108 1.14584 16.2707 3.50567 16.2707 6.41667C16.2707 9.32767 13.9108 11.6875 10.9998 11.6875C8.08884 11.6875 5.729 9.32767 5.729 6.41667Z" fill="white"/>
<path fill-rule="evenodd" clip-rule="evenodd" d="M2.43823 20.1667C2.43823 16.1142 6.41393 13.0625 10.9999 13.0625C15.5859 13.0625 19.5616 16.1142 19.5616 20.1667C19.5616 20.5464 19.2538 20.8542 18.8741 20.8542C18.4944 20.8542 18.1866 20.5464 18.1866 20.1667C18.1866 17.1241 15.1039 14.4375 10.9999 14.4375C6.89586 14.4375 3.81323 17.1241 3.81323 20.1667C3.81323 20.5464 3.50543 20.8542 3.12573 20.8542C2.74604 20.8542 2.43823 20.5464 2.43823 20.1667Z" fill="white"/>
</svg>
