<svg width="16" height="16" viewBox="0 0 16 16" fill="none" xmlns="http://www.w3.org/2000/svg">
<g clip-path="url(#clip0_2349_2586)">
<path fill-rule="evenodd" clip-rule="evenodd" d="M15.0466 4.09741C15.1571 3.74725 15.0466 3.4927 14.5577 3.4927H12.932C12.5219 3.4927 12.3326 3.71559 12.2221 3.95399C12.2221 3.95399 11.3858 5.99037 10.218 7.3106C9.83926 7.69242 9.66573 7.81969 9.46054 7.81969C9.35003 7.81969 9.20786 7.69242 9.20786 7.34257V4.08096C9.20786 3.66747 9.08182 3.47656 8.73446 3.47656H6.17781C5.92513 3.47656 5.76744 3.66747 5.76744 3.85838C5.76744 4.25604 6.35134 4.35165 6.41436 5.46513V7.88457C6.41436 8.4095 6.32123 8.50542 6.11449 8.50542C5.56225 8.50542 4.22091 6.45321 3.41629 4.11479C3.25984 3.65164 3.1009 3.47656 2.69052 3.47656H1.04931C0.575918 3.47656 0.49707 3.69914 0.49707 3.93785C0.49707 4.36748 1.04931 6.53082 3.06924 9.39416C4.41058 11.3498 6.31999 12.4009 8.04004 12.4009C9.08182 12.4009 9.20786 12.1622 9.20786 11.7646V10.2851C9.20786 9.80795 9.30253 9.72849 9.63407 9.72849C9.87061 9.72849 10.2968 9.85545 11.2594 10.7942C12.3639 11.9077 12.5533 12.4168 13.1689 12.4168H14.7942C15.2676 12.4168 15.4886 12.178 15.3623 11.7167C15.2204 11.2555 14.6837 10.5874 13.9893 9.79212C13.6106 9.34698 13.0425 8.85371 12.869 8.615C12.6324 8.29681 12.6955 8.16954 12.869 7.88333C12.8532 7.88333 14.8417 5.05165 15.0466 4.09617" fill="white"/>
</g>
<defs>
<clipPath id="clip0_2349_2586">
<rect width="15.8937" height="15.8937" fill="white"/>
</clipPath>
</defs>
</svg>
