<svg width="22" height="22" viewBox="0 0 22 22" fill="none" xmlns="http://www.w3.org/2000/svg">
<path fill-rule="evenodd" clip-rule="evenodd" d="M15.0032 2.11199C15.411 2.03533 15.8307 2.04908 16.2326 2.15231C16.6368 2.25612 17.0132 2.44786 17.3347 2.71386C17.6563 2.97985 17.9152 3.31354 18.093 3.69112C18.2708 4.0687 18.363 4.48086 18.3631 4.8982V4.89842V5.54319C19.6491 5.77354 20.625 6.8978 20.625 8.25V16.5C20.625 18.0188 19.3938 19.25 17.875 19.25H4.125C2.60622 19.25 1.375 18.0188 1.375 16.5V8.25L1.375 8.24834V6.83222V6.83201C1.37466 6.17182 1.60466 5.5322 2.02536 5.0234C2.44616 4.51448 3.03137 4.16837 3.68005 4.04475C3.68439 4.04392 3.68873 4.04314 3.69308 4.0424L15.0032 2.11199ZM16.9881 4.89864V5.5H4.125C3.89209 5.5 3.66593 5.52896 3.44995 5.58346C3.59705 5.4937 3.75995 5.43001 3.93158 5.39657L15.2407 3.46635C15.243 3.46596 15.2452 3.46556 15.2475 3.46515C15.2496 3.46477 15.2516 3.46439 15.2537 3.464C15.4649 3.42375 15.6824 3.43061 15.8906 3.48409C16.0988 3.53757 16.2927 3.63634 16.4583 3.77337C16.624 3.9104 16.7574 4.0823 16.849 4.27681C16.9405 4.47126 16.988 4.6835 16.9881 4.89842V4.89864ZM2.75 16.5L2.75 8.93748V8.24864C2.75073 7.48988 3.36606 6.875 4.125 6.875H17.875C18.6344 6.875 19.25 7.49061 19.25 8.25V16.5C19.25 17.2594 18.6344 17.875 17.875 17.875H4.125C3.36561 17.875 2.75 17.2594 2.75 16.5ZM15.0486 13.5183C15.2747 13.6694 15.5406 13.75 15.8125 13.75C16.1772 13.75 16.5269 13.6051 16.7848 13.3473C17.0426 13.0894 17.1875 12.7397 17.1875 12.375C17.1875 12.1031 17.1069 11.8372 16.9558 11.6111C16.8047 11.385 16.5899 11.2087 16.3387 11.1047C16.0874 11.0006 15.811 10.9734 15.5443 11.0264C15.2775 11.0795 15.0325 11.2104 14.8402 11.4027C14.6479 11.595 14.517 11.84 14.4639 12.1068C14.4109 12.3735 14.4381 12.6499 14.5422 12.9012C14.6462 13.1524 14.8225 13.3672 15.0486 13.5183Z" fill="#797979"/>
</svg>
