<svg width="16" height="16" viewBox="0 0 16 16" fill="none" xmlns="http://www.w3.org/2000/svg">
<path d="M10.5782 10.6934C10.7617 10.0508 10.8831 9.30422 10.9293 8.58746C10.9304 8.56873 10.9275 8.55 10.921 8.53241C10.9145 8.51483 10.9044 8.49877 10.8914 8.48524C10.8785 8.4717 10.8628 8.46098 10.8455 8.45373C10.8282 8.44649 10.8096 8.44287 10.7909 8.44311H8.58502C8.56696 8.44295 8.54905 8.44634 8.5323 8.4531C8.51555 8.45986 8.5003 8.46985 8.48742 8.48251C8.47453 8.49516 8.46426 8.51023 8.4572 8.52685C8.45014 8.54348 8.44642 8.56133 8.44626 8.57939V10.296C8.44665 10.3307 8.4601 10.364 8.48392 10.3892C8.50774 10.4144 8.54018 10.4297 8.57478 10.432C9.19641 10.4822 9.81061 10.6008 10.4063 10.7856C10.4413 10.7961 10.4791 10.7923 10.5113 10.775C10.5436 10.7577 10.5676 10.7284 10.5782 10.6934Z" fill="white"/>
<path d="M10.0453 11.7122C9.57267 11.5742 9.08847 11.4798 8.59868 11.43C8.57976 11.4279 8.56061 11.4297 8.54244 11.4354C8.52427 11.4411 8.50749 11.4505 8.49315 11.463C8.47882 11.4756 8.46725 11.4909 8.45917 11.5082C8.4511 11.5254 8.4467 11.5441 8.44626 11.5632V13.5884C8.44701 13.6125 8.45405 13.6361 8.46669 13.6567C8.47933 13.6773 8.49713 13.6942 8.51833 13.7058C8.53953 13.7174 8.5634 13.7233 8.58756 13.7228C8.61173 13.7224 8.63536 13.7156 8.65611 13.7032C9.14968 13.4155 9.55634 12.9321 9.92388 12.293C9.9841 12.1887 10.0757 12.0089 10.1309 11.8991C10.1395 11.8814 10.1441 11.862 10.1443 11.8424C10.1445 11.8227 10.1404 11.8033 10.1322 11.7854C10.124 11.7675 10.1119 11.7517 10.0969 11.7391C10.0819 11.7264 10.0642 11.7172 10.0453 11.7122Z" fill="white"/>
<path d="M7.30452 11.4356C6.81534 11.4821 6.3315 11.5738 5.85919 11.7094C5.77724 11.733 5.74278 11.846 5.78004 11.9202C5.8356 12.0307 5.9042 12.1719 5.96287 12.2775C6.36643 12.9914 6.79605 13.4415 7.24306 13.7032C7.26381 13.7156 7.28744 13.7224 7.3116 13.7228C7.33577 13.7233 7.35963 13.7174 7.38083 13.7058C7.40204 13.6942 7.41984 13.6773 7.43248 13.6567C7.44512 13.6361 7.45216 13.6125 7.45291 13.5884V11.5622C7.45276 11.5437 7.44864 11.5255 7.44082 11.5087C7.43301 11.492 7.42168 11.4771 7.40761 11.4651C7.39354 11.4531 7.37706 11.4442 7.35927 11.4391C7.34149 11.434 7.32282 11.4328 7.30452 11.4356Z" fill="white"/>
<path d="M7.31415 8.44311H5.10828C5.08955 8.44287 5.07098 8.44648 5.05371 8.45371C5.03643 8.46093 5.02082 8.47163 5.00784 8.48513C4.99487 8.49863 4.9848 8.51465 4.97826 8.5322C4.97172 8.54974 4.96885 8.56845 4.96983 8.58715C5.01577 9.30298 5.13653 10.0511 5.31937 10.6931C5.32455 10.7106 5.33317 10.727 5.34473 10.7412C5.35628 10.7554 5.37054 10.7672 5.38668 10.7759C5.40282 10.7845 5.42052 10.7899 5.43875 10.7917C5.45699 10.7934 5.47539 10.7916 5.49289 10.7862C6.08851 10.6014 6.70275 10.4831 7.32439 10.4335C7.35904 10.4313 7.39156 10.416 7.41545 10.3908C7.43933 10.3656 7.45282 10.3323 7.45322 10.2976V8.5797C7.4531 8.56158 7.4494 8.54368 7.44233 8.527C7.43527 8.51032 7.42498 8.4952 7.41206 8.48251C7.39914 8.46982 7.38384 8.4598 7.36703 8.45304C7.35023 8.44628 7.33226 8.44291 7.31415 8.44311Z" fill="white"/>
<path d="M8.5993 4.46286C9.08876 4.417 9.57236 4.32195 10.0428 4.17914C10.0616 4.17403 10.0792 4.16484 10.0941 4.15221C10.109 4.13959 10.121 4.12383 10.1292 4.10606C10.1374 4.08829 10.1415 4.06895 10.1414 4.04939C10.1413 4.02983 10.1369 4.01054 10.1284 3.99288C10.0729 3.88206 9.99589 3.72344 9.93691 3.61758C9.5554 2.93465 9.12547 2.45815 8.65673 2.18963C8.63596 2.17734 8.61235 2.17066 8.58822 2.17025C8.56409 2.16984 8.54027 2.17572 8.5191 2.18731C8.49793 2.19889 8.48014 2.21579 8.46747 2.23634C8.45481 2.25688 8.44772 2.28037 8.44688 2.30449V4.32938C8.44733 4.34842 8.45172 4.36717 8.45979 4.38442C8.46786 4.40167 8.47943 4.41706 8.49376 4.42961C8.50809 4.44216 8.52487 4.4516 8.54304 4.45732C8.56121 4.46305 8.58036 4.46493 8.5993 4.46286Z" fill="white"/>
<path d="M8.58502 7.44976H10.7909C10.8095 7.45007 10.8279 7.44658 10.8451 7.4395C10.8623 7.43241 10.8779 7.42189 10.8908 7.40857C10.9038 7.39526 10.9139 7.37943 10.9205 7.36206C10.9271 7.34469 10.9301 7.32615 10.9293 7.30758C10.8834 6.60075 10.7657 5.82376 10.5829 5.18988C10.5776 5.17245 10.5688 5.15625 10.5572 5.1422C10.5456 5.12816 10.5313 5.11655 10.5152 5.10804C10.499 5.09953 10.4814 5.09429 10.4632 5.09262C10.4451 5.09095 10.4268 5.09288 10.4094 5.0983C9.81957 5.27648 9.20525 5.42207 8.57509 5.47081C8.54065 5.47276 8.50823 5.48768 8.48433 5.51255C8.46043 5.53743 8.44683 5.57042 8.44626 5.60491V7.31565C8.44691 7.35183 8.46189 7.38626 8.48791 7.4114C8.51392 7.43654 8.54885 7.45034 8.58502 7.44976Z" fill="white"/>
<path d="M7.24306 2.18994C6.76439 2.45598 6.33756 2.94831 5.95573 3.62938C5.89644 3.73523 5.82567 3.88113 5.76948 3.99164C5.76113 4.00931 5.75674 4.02859 5.75664 4.04813C5.75654 4.06767 5.76072 4.087 5.76888 4.10475C5.77705 4.1225 5.78901 4.13825 5.80391 4.15089C5.81882 4.16352 5.83631 4.17274 5.85516 4.1779C6.32538 4.32333 6.80963 4.41874 7.29987 4.46255C7.31878 4.46462 7.33791 4.46274 7.35606 4.45704C7.3742 4.45133 7.39097 4.44192 7.40529 4.42941C7.41962 4.41689 7.43119 4.40154 7.43928 4.38432C7.44737 4.36711 7.4518 4.3484 7.45229 4.32938V2.3048C7.4513 2.28081 7.44414 2.25748 7.4315 2.23707C7.41885 2.21666 7.40114 2.19987 7.38009 2.18831C7.35905 2.17676 7.33537 2.17084 7.31136 2.17112C7.28735 2.17141 7.26383 2.17789 7.24306 2.18994Z" fill="white"/>
<path d="M7.32408 5.47112C6.69392 5.423 6.07897 5.27741 5.48979 5.09861C5.47238 5.09319 5.45408 5.09126 5.43593 5.09293C5.41777 5.0946 5.40013 5.09984 5.384 5.10835C5.36788 5.11686 5.3536 5.12847 5.34197 5.14251C5.33035 5.15656 5.32161 5.17276 5.31626 5.19019C5.13342 5.82407 5.01577 6.60106 4.96983 7.30789C4.96902 7.32646 4.97202 7.345 4.97865 7.36237C4.98527 7.37974 4.99538 7.39557 5.00835 7.40888C5.02131 7.4222 5.03687 7.43272 5.05406 7.43981C5.07124 7.44689 5.08969 7.45038 5.10828 7.45007H7.31415C7.33211 7.45035 7.34995 7.4471 7.36666 7.44048C7.38336 7.43386 7.39859 7.42401 7.41148 7.41149C7.42437 7.39898 7.43466 7.38404 7.44177 7.36755C7.44888 7.35105 7.45266 7.33331 7.45291 7.31534V5.60522C7.45234 5.57073 7.43874 5.53774 7.41484 5.51286C7.39094 5.48799 7.35852 5.47307 7.32408 5.47112Z" fill="white"/>
<path d="M12.8642 3.02964C12.2197 2.37873 11.4529 1.86159 10.6079 1.50792C9.76289 1.15425 8.85634 0.971026 7.94032 0.968771C7.0243 0.966517 6.11686 1.14528 5.27013 1.49478C4.42341 1.84429 3.65408 2.35765 3.00635 3.00538C2.35863 3.6531 1.84526 4.42243 1.49576 5.26916C1.14625 6.11588 0.967493 7.02332 0.969748 7.93934C0.972002 8.85537 1.15523 9.76192 1.5089 10.6069C1.86257 11.4519 2.37971 12.2187 3.03062 12.8632C3.67515 13.5141 4.44194 14.0313 5.28693 14.3849C6.13193 14.7386 7.03848 14.9218 7.9545 14.9241C8.87052 14.9264 9.77796 14.7476 10.6247 14.3981C11.4714 14.0486 12.2407 13.5352 12.8885 12.8875C13.5362 12.2398 14.0496 11.4704 14.3991 10.6237C14.7486 9.77698 14.9273 8.86954 14.9251 7.95352C14.9228 7.0375 14.7396 6.13095 14.3859 5.28596C14.0323 4.44096 13.5151 3.67417 12.8642 3.02964ZM5.48265 13.3742C5.34279 13.1778 5.21347 12.974 5.09524 12.7639C5.03316 12.6493 4.945 12.4764 4.88633 12.3563C4.87288 12.3278 4.85363 12.3024 4.8298 12.2818C4.80598 12.2612 4.77811 12.2458 4.74799 12.2365C4.71786 12.2273 4.68613 12.2244 4.65484 12.2282C4.62355 12.2319 4.59339 12.2421 4.56628 12.2582C4.4328 12.333 4.25586 12.4358 4.12765 12.5199C3.8588 12.3155 3.61341 12.082 3.39598 11.8236C3.69667 11.6114 4.01214 11.4209 4.33998 11.2537C4.39772 11.2226 4.42597 11.1873 4.40765 11.1239C4.16745 10.2926 4.02075 9.43705 3.97027 8.57318C3.96876 8.53863 3.9541 8.50598 3.92927 8.4819C3.90445 8.45783 3.87136 8.44417 3.83679 8.44373H2.07544C2.06047 8.4439 2.04594 8.43865 2.03453 8.42896C2.02312 8.41926 2.0156 8.40576 2.01336 8.39096C1.99385 8.24362 1.98514 8.09505 1.98728 7.94643C1.98516 7.79811 1.99408 7.64984 2.01398 7.50284C2.01623 7.48803 2.02375 7.47454 2.03515 7.46484C2.04656 7.45515 2.06109 7.4499 2.07607 7.45007H3.83741C3.90849 7.45007 3.96685 7.40909 3.97058 7.33738C4.02039 6.47711 4.16616 5.62509 4.40517 4.79719C4.41407 4.76697 4.41215 4.73459 4.39974 4.70564C4.38733 4.67668 4.36521 4.65296 4.33719 4.63856C4.01639 4.47419 3.70693 4.28855 3.41089 4.08291C3.62716 3.82457 3.8677 3.58757 4.1292 3.37514C4.25586 3.45833 4.421 3.55239 4.55324 3.62689C4.58239 3.64346 4.61462 3.65387 4.64794 3.65747C4.68127 3.66108 4.71498 3.6578 4.74699 3.64785C4.779 3.6379 4.80863 3.62148 4.83404 3.59961C4.85945 3.57775 4.8801 3.5509 4.89471 3.52073C4.95307 3.4006 5.01888 3.2668 5.08282 3.15195C5.20156 2.93919 5.3315 2.73288 5.4721 2.53389C6.24611 2.16925 7.09182 1.98216 7.94741 1.98631C8.84578 1.98631 9.68268 2.2036 10.4472 2.55935C10.5823 2.74889 10.7066 2.9458 10.8198 3.14915C10.9002 3.29381 10.9855 3.47106 11.0575 3.62472C11.0653 3.64108 11.0763 3.6557 11.0898 3.66767C11.1034 3.67965 11.1193 3.68873 11.1365 3.69437C11.1537 3.7 11.1718 3.70207 11.1899 3.70045C11.2079 3.69883 11.2254 3.69356 11.2413 3.68494C11.4083 3.59461 11.5893 3.49062 11.7485 3.38601C12.0108 3.60052 12.252 3.8396 12.4687 4.09998C12.1808 4.29967 11.8794 4.47921 11.5666 4.63732C11.5386 4.65173 11.5164 4.67552 11.5041 4.70455C11.4917 4.73359 11.4899 4.76603 11.499 4.79626C11.7419 5.61854 11.8862 6.46677 11.9289 7.3231C11.9306 7.35745 11.9453 7.38985 11.9702 7.41364C11.995 7.43743 12.028 7.4508 12.0624 7.451L13.82 7.44883C13.835 7.44866 13.8495 7.4539 13.8609 7.4636C13.8723 7.4733 13.8798 7.48679 13.8821 7.5016C13.9183 7.79663 13.9183 8.09499 13.8821 8.39003C13.88 8.40495 13.8725 8.41859 13.8611 8.42841C13.8497 8.43823 13.8351 8.44357 13.82 8.44342H12.0608C12.0262 8.44379 11.9931 8.45742 11.9683 8.48151C11.9434 8.5056 11.9288 8.5383 11.9273 8.57287C11.879 9.42761 11.7346 10.2742 11.4968 11.0966C11.4878 11.1272 11.4897 11.1599 11.502 11.1893C11.5144 11.2187 11.5366 11.2428 11.5648 11.2577C11.72 11.3381 11.8929 11.4278 12.0419 11.5191C12.1909 11.6104 12.3383 11.7078 12.4805 11.809C12.2654 12.0682 12.0264 12.3065 11.7665 12.5208C11.6908 12.4709 11.6008 12.414 11.5232 12.3675C11.4698 12.3364 11.3714 12.2815 11.3167 12.2508C11.1982 12.1843 11.0721 12.234 11.0128 12.3563C10.9535 12.4786 10.8629 12.654 10.7996 12.7676C10.6829 12.9765 10.5549 13.1789 10.4162 13.3739C9.65195 13.7318 8.84578 13.9066 7.94741 13.9066C7.04905 13.9066 6.24722 13.7318 5.48265 13.3742Z" fill="white"/>
</svg>
