<svg width="123" height="123" viewBox="0 0 123 123" fill="none" xmlns="http://www.w3.org/2000/svg">
<rect x="0.5" y="0.5" width="122" height="122" rx="9.5" stroke="#725DFF"/>
<path d="M51.1866 61.2867C50.6402 61.2872 50.1124 61.0886 49.702 60.7281L35.952 48.6968C35.7102 48.4851 35.5164 48.2241 35.3836 47.9314C35.2508 47.6387 35.1821 47.321 35.1821 46.9996C35.1821 46.6781 35.2508 46.3604 35.3836 46.0677C35.5164 45.775 35.7102 45.514 35.952 45.3023L49.702 33.2711C50.1523 32.877 50.7406 32.678 51.3377 32.7178C51.9347 32.7576 52.4914 33.0329 52.8854 33.4832C53.2795 33.9335 53.4785 34.5219 53.4387 35.1189C53.3989 35.7159 53.1236 36.2726 52.6733 36.6667L40.8622 46.9996L52.6722 57.3325C53.0179 57.6347 53.2631 58.0351 53.3751 58.4804C53.4871 58.9256 53.4606 59.3944 53.2992 59.8242C53.1377 60.254 52.8489 60.6243 52.4714 60.8856C52.0939 61.1469 51.6457 61.2869 51.1866 61.2867Z" fill="#725DFF"/>
<path d="M71.8116 61.2867C71.3523 61.2871 70.904 61.1473 70.5263 60.8861C70.1486 60.6248 69.8597 60.2546 69.6981 59.8247C69.5365 59.3949 69.5099 58.926 69.6219 58.4806C69.7339 58.0353 69.9791 57.6347 70.3248 57.3325L82.1359 46.9996L70.3259 36.6667C69.8756 36.2726 69.6003 35.7159 69.5605 35.1189C69.5207 34.5219 69.7197 33.9335 70.1138 33.4832C70.5078 33.0329 71.0645 32.7576 71.6615 32.7178C72.2586 32.678 72.8469 32.877 73.2972 33.2711L87.0472 45.3023C87.289 45.514 87.4828 45.775 87.6156 46.0677C87.7484 46.3604 87.8171 46.6781 87.8171 46.9996C87.8171 47.321 87.7484 47.6387 87.6156 47.9314C87.4828 48.2241 87.289 48.4851 87.0472 48.6968L73.2972 60.7281C72.8866 61.089 72.3583 61.2877 71.8116 61.2867Z" fill="#725DFF"/>
<path d="M56.3428 66.4429C55.9915 66.4428 55.6451 66.3607 55.3311 66.2031C55.0172 66.0455 54.7444 65.8167 54.5344 65.535C54.3245 65.2533 54.1833 64.9265 54.122 64.5806C54.0607 64.2346 54.0811 63.8792 54.1815 63.5425L64.494 29.1675C64.5717 28.8758 64.7071 28.6027 64.8923 28.3643C65.0774 28.1259 65.3086 27.9271 65.572 27.7796C65.8354 27.6322 66.1257 27.5391 66.4257 27.5059C66.7258 27.4727 67.0294 27.5 67.3187 27.5863C67.608 27.6726 67.877 27.8161 68.1098 28.0082C68.3426 28.2004 68.5345 28.4373 68.6741 28.7049C68.8137 28.9726 68.8981 29.2655 68.9224 29.5664C68.9467 29.8673 68.9104 30.17 68.8156 30.4566L58.5031 64.8316C58.3643 65.2969 58.0792 65.705 57.69 65.9953C57.3008 66.2856 56.8283 66.4426 56.3428 66.4429Z" fill="#725DFF"/>
<path d="M47.924 99.66C46.9427 99.66 46.1267 99.4787 45.476 99.116C44.836 98.7533 44.3507 98.2467 44.02 97.596C43.6893 96.9453 43.508 96.188 43.476 95.324C43.4653 94.8867 43.46 94.4173 43.46 93.916C43.46 93.4147 43.4653 92.9347 43.476 92.476C43.508 91.612 43.6893 90.8547 44.02 90.204C44.3507 89.5533 44.836 89.0467 45.476 88.684C46.1267 88.3213 46.9427 88.14 47.924 88.14C48.66 88.14 49.3053 88.2413 49.86 88.444C50.4147 88.6467 50.8733 88.9187 51.236 89.26C51.6093 89.6013 51.892 89.9853 52.084 90.412C52.276 90.828 52.3827 91.26 52.404 91.708C52.4147 91.804 52.3827 91.884 52.308 91.948C52.244 92.012 52.164 92.044 52.068 92.044H51.188C51.092 92.044 51.0067 92.0173 50.932 91.964C50.868 91.9107 50.82 91.8147 50.788 91.676C50.6067 90.844 50.2653 90.2733 49.764 89.964C49.2733 89.6547 48.66 89.5 47.924 89.5C47.06 89.5 46.3773 89.7453 45.876 90.236C45.3747 90.716 45.108 91.4893 45.076 92.556C45.044 93.4307 45.044 94.3267 45.076 95.244C45.108 96.3107 45.3747 97.0893 45.876 97.58C46.3773 98.06 47.06 98.3 47.924 98.3C48.66 98.3 49.2733 98.1453 49.764 97.836C50.2653 97.5267 50.6067 96.956 50.788 96.124C50.82 95.9853 50.868 95.8893 50.932 95.836C51.0067 95.7827 51.092 95.756 51.188 95.756H52.068C52.164 95.756 52.244 95.788 52.308 95.852C52.3827 95.9053 52.4147 95.98 52.404 96.076C52.3827 96.524 52.276 96.9613 52.084 97.388C51.892 97.8147 51.6093 98.1987 51.236 98.54C50.8733 98.8813 50.4147 99.1533 49.86 99.356C49.3053 99.5587 48.66 99.66 47.924 99.66ZM56.8203 99.66C56.2869 99.66 55.8016 99.5533 55.3642 99.34C54.9269 99.1267 54.5749 98.8387 54.3082 98.476C54.0416 98.1133 53.9082 97.7027 53.9082 97.244C53.9082 96.508 54.2069 95.9213 54.8042 95.484C55.4016 95.0467 56.1802 94.7587 57.1402 94.62L59.5243 94.284V93.82C59.5243 93.308 59.3749 92.908 59.0763 92.62C58.7882 92.332 58.3136 92.188 57.6523 92.188C57.1829 92.188 56.7989 92.284 56.5003 92.476C56.2016 92.668 55.9936 92.9133 55.8763 93.212C55.8123 93.372 55.7003 93.452 55.5403 93.452H54.8202C54.7029 93.452 54.6122 93.42 54.5482 93.356C54.4949 93.2813 54.4682 93.196 54.4682 93.1C54.4682 92.94 54.5269 92.7427 54.6442 92.508C54.7722 92.2733 54.9642 92.044 55.2202 91.82C55.4762 91.596 55.8016 91.4093 56.1962 91.26C56.6016 91.1 57.0923 91.02 57.6683 91.02C58.3083 91.02 58.8469 91.1053 59.2843 91.276C59.7216 91.436 60.0629 91.6547 60.3082 91.932C60.5643 92.2093 60.7456 92.524 60.8523 92.876C60.9696 93.228 61.0283 93.5853 61.0283 93.948V99.132C61.0283 99.2387 60.9909 99.3293 60.9163 99.404C60.8523 99.468 60.7669 99.5 60.6603 99.5H59.9243C59.8069 99.5 59.7163 99.468 59.6523 99.404C59.5883 99.3293 59.5563 99.2387 59.5563 99.132V98.444C59.4176 98.636 59.2309 98.828 58.9963 99.02C58.7616 99.2013 58.4682 99.356 58.1163 99.484C57.7643 99.6013 57.3323 99.66 56.8203 99.66ZM57.1562 98.46C57.5936 98.46 57.9936 98.3693 58.3563 98.188C58.7189 97.996 59.0016 97.7027 59.2043 97.308C59.4176 96.9133 59.5243 96.4173 59.5243 95.82V95.372L57.6683 95.644C56.9109 95.7507 56.3402 95.932 55.9562 96.188C55.5722 96.4333 55.3802 96.748 55.3802 97.132C55.3802 97.4307 55.4656 97.6813 55.6363 97.884C55.8176 98.076 56.0416 98.22 56.3082 98.316C56.5856 98.412 56.8683 98.46 57.1562 98.46ZM63.8404 99.5C63.7444 99.5 63.659 99.468 63.5844 99.404C63.5204 99.3293 63.4884 99.2493 63.4884 99.164V91.548C63.4884 91.4413 63.5204 91.356 63.5844 91.292C63.659 91.2173 63.7497 91.18 63.8564 91.18H64.6244C64.731 91.18 64.8164 91.2173 64.8804 91.292C64.955 91.356 64.9924 91.4413 64.9924 91.548V98.332L64.5604 97.9L69.4084 91.42C69.4617 91.356 69.5204 91.3027 69.5844 91.26C69.6484 91.2067 69.7284 91.18 69.8244 91.18H70.5604C70.6457 91.18 70.7204 91.212 70.7844 91.276C70.859 91.34 70.8964 91.4147 70.8964 91.5V99.132C70.8964 99.2387 70.859 99.3293 70.7844 99.404C70.7204 99.468 70.635 99.5 70.5284 99.5H69.7764C69.659 99.5 69.5684 99.468 69.5044 99.404C69.4404 99.3293 69.4084 99.2387 69.4084 99.132V92.748L69.8564 92.732L64.9764 99.26C64.9337 99.3133 64.8804 99.3667 64.8164 99.42C64.7524 99.4733 64.667 99.5 64.5604 99.5H63.8404ZM67.2324 90.076C66.6137 90.076 66.1284 89.98 65.7764 89.788C65.4244 89.596 65.179 89.3507 65.0404 89.052C64.9017 88.7427 64.8324 88.4173 64.8324 88.076C64.8324 87.9907 64.8537 87.9213 64.8964 87.868C64.9497 87.804 65.0297 87.772 65.1364 87.772H65.6804C65.7764 87.772 65.851 87.804 65.9044 87.868C65.9577 87.9213 65.9844 87.9907 65.9844 88.076C65.9844 88.332 66.0697 88.5667 66.2404 88.78C66.411 88.9827 66.7417 89.084 67.2324 89.084C67.7444 89.084 68.0804 88.9827 68.2404 88.78C68.4004 88.5667 68.4804 88.332 68.4804 88.076C68.4804 87.9907 68.507 87.9213 68.5604 87.868C68.6137 87.804 68.6884 87.772 68.7844 87.772H69.3444C69.4404 87.772 69.515 87.804 69.5684 87.868C69.6217 87.9213 69.6484 87.9907 69.6484 88.076C69.6484 88.4173 69.5737 88.7427 69.4244 89.052C69.2857 89.3507 69.0404 89.596 68.6884 89.788C68.3364 89.98 67.851 90.076 67.2324 90.076ZM75.9424 99.5C75.8357 99.5 75.745 99.468 75.6704 99.404C75.6064 99.3293 75.5744 99.2387 75.5744 99.132V92.46H72.7904C72.6837 92.46 72.593 92.428 72.5184 92.364C72.4544 92.2893 72.4224 92.1987 72.4224 92.092V91.548C72.4224 91.4413 72.4544 91.356 72.5184 91.292C72.593 91.2173 72.6837 91.18 72.7904 91.18H79.8304C79.937 91.18 80.0224 91.2173 80.0864 91.292C80.161 91.356 80.1984 91.4413 80.1984 91.548V92.092C80.1984 92.1987 80.161 92.2893 80.0864 92.364C80.0224 92.428 79.937 92.46 79.8304 92.46H77.0464V99.132C77.0464 99.2387 77.0144 99.3293 76.9504 99.404C76.8864 99.468 76.801 99.5 76.6944 99.5H75.9424Z" fill="#725DFF"/>
</svg>
