<svg width="16" height="16" viewBox="0 0 16 16" fill="none" xmlns="http://www.w3.org/2000/svg">
<path d="M13.5984 2.31962C12.126 0.816162 10.0905 0 8.0118 0C3.59448 0 0.043307 3.56534 0.086614 7.90388C0.086614 9.27847 0.476377 10.6101 1.12598 11.8129L0 15.8937L4.20078 14.8198C5.37007 15.4641 6.66928 15.7648 7.96849 15.7648C12.3425 15.7648 15.8937 12.1995 15.8937 7.86092C15.8937 5.75609 15.0708 3.78012 13.5984 2.31962ZM8.0118 14.4332C6.84251 14.4332 5.67322 14.1325 4.67716 13.5311L4.41731 13.4022L1.90551 14.0466L2.55511 11.5981L2.38189 11.3403C0.476377 8.29048 1.38582 4.25263 4.50393 2.36257C7.62203 0.472514 11.6496 1.37459 13.5551 4.46741C15.4606 7.56023 14.5512 11.5551 11.433 13.4452C10.437 14.0895 9.22439 14.4332 8.0118 14.4332ZM11.8228 9.66507L11.3464 9.45029C11.3464 9.45029 10.6535 9.1496 10.2205 8.93482C10.1771 8.93482 10.1338 8.89186 10.0905 8.89186C9.96061 8.89186 9.874 8.93482 9.78738 8.97778C9.78738 8.97778 9.74408 9.02073 9.13778 9.70803C9.09447 9.79394 9.00786 9.83689 8.92124 9.83689H8.87794C8.83463 9.83689 8.74801 9.79394 8.70471 9.75098L8.48817 9.66507C8.0118 9.45029 7.57873 9.19256 7.23227 8.84891C7.14566 8.763 7.01573 8.67708 6.92912 8.59117C6.62597 8.29048 6.32282 7.94684 6.10629 7.56023L6.06298 7.47432C6.01967 7.43136 6.01967 7.38841 5.97637 7.3025C5.97637 7.21659 5.97637 7.13067 6.01967 7.08772C6.01967 7.08772 6.1929 6.87294 6.32282 6.74407C6.40944 6.65816 6.45274 6.52929 6.53936 6.44338C6.62597 6.31451 6.66928 6.14269 6.62597 6.01382C6.58266 5.79904 6.06298 4.63923 5.93306 4.3815C5.84645 4.25263 5.75983 4.20967 5.62991 4.16672H5.49999C5.41338 4.16672 5.28345 4.16672 5.15353 4.16672C5.06692 4.16672 4.98031 4.20967 4.89369 4.20967L4.85038 4.25263C4.76377 4.29559 4.67716 4.3815 4.59054 4.42445C4.50393 4.51037 4.46062 4.59628 4.37401 4.68219C4.07086 5.06879 3.89763 5.54131 3.89763 6.01382C3.89763 6.35747 3.98424 6.70111 4.11417 7.00181L4.15747 7.13067C4.54724 7.94684 5.06692 8.67708 5.75983 9.32142L5.93306 9.49325C6.06298 9.62211 6.1929 9.70803 6.27952 9.83689C7.18896 10.6101 8.22833 11.1685 9.39762 11.4692C9.52754 11.5122 9.70077 11.5122 9.83069 11.5551C9.96061 11.5551 10.1338 11.5551 10.2638 11.5551C10.4803 11.5551 10.7401 11.4692 10.9134 11.3833C11.0433 11.2974 11.1299 11.2974 11.2165 11.2115L11.3031 11.1256C11.3897 11.0397 11.4764 10.9967 11.563 10.9108C11.6496 10.8249 11.7362 10.739 11.7795 10.6531C11.8661 10.4812 11.9094 10.2665 11.9527 10.0517C11.9527 9.96576 11.9527 9.83689 11.9527 9.75098C11.9527 9.75098 11.9094 9.70803 11.8228 9.66507Z" fill="white"/>
</svg>
