<svg width="20" height="14" viewBox="0 0 20 14" fill="none" xmlns="http://www.w3.org/2000/svg">
<path d="M9.99805 0C10.0589 1.02635e-05 16.2643 0.0025794 17.8213 0.428711C18.6775 0.659356 19.3524 1.33418 19.583 2.19043C20.0112 3.75513 19.9951 7.0166 19.9951 7.0166C19.9951 7.04323 19.9931 10.2679 19.583 11.8262C19.3523 12.6823 18.6775 13.3573 17.8213 13.5879C16.2643 13.9976 10.0589 14 9.99805 14C9.99805 14 3.755 13.9995 2.17383 13.5713C1.31763 13.3406 0.642738 12.6658 0.412109 11.8096C0.00112167 10.2643 1.45553e-06 7.01223 0 7C0 7 0.00034678 3.75513 0.412109 2.19043C0.642725 1.33419 1.33406 0.642772 2.17383 0.412109C3.73853 0.000346705 9.99805 0 9.99805 0ZM8.00391 9.99902L13.209 7.00098L8.00391 4.00391V9.99902Z" fill="white"/>
</svg>
