<svg width="139" height="139" viewBox="0 0 139 139" fill="none" xmlns="http://www.w3.org/2000/svg">
<rect width="139" height="139" rx="5.62428" fill="url(#paint0_linear_890_7159)"/>
<path d="M70.7418 110.477C69.9499 110.477 69.1904 110.162 68.6304 109.602L49.8862 90.858C49.3262 90.2981 49.0116 89.5386 49.0116 88.7467V31.509C49.0116 29.86 50.3484 28.5231 51.9975 28.5231H66.519C68.1681 28.5231 69.505 29.86 69.505 31.509V46.0207C69.505 47.6697 70.8418 49.0066 72.4909 49.0066H87.0025C88.6516 49.0066 89.9884 50.3434 89.9884 51.9925V66.5141C89.9884 68.1632 88.6516 69.5 87.0025 69.5H72.4909C70.8418 69.5 69.505 70.8368 69.505 72.4859V86.9975C69.505 88.6466 70.8418 89.9835 72.4909 89.9835H87.0025C88.6516 89.9835 89.9884 91.3203 89.9884 92.9694V107.491C89.9884 109.14 88.6516 110.477 87.0025 110.477H70.7418Z" fill="white"/>
<defs>
<linearGradient id="paint0_linear_890_7159" x1="-0.2771" y1="69.5" x2="138.723" y2="69.5" gradientUnits="userSpaceOnUse">
<stop stop-color="#1601AB"/>
<stop offset="1" stop-color="#9647FE"/>
</linearGradient>
</defs>
</svg>
